<svg xmlns="http://www.w3.org/2000/svg" viewBox="0 0 72 72">
  <defs>
    <style>
      .beginner-cls-1 {
        fill: #d2d8ea;
      }

      .beginner-cls-2 {
        fill: #a6b3db;
      }

      .beginner-cls-3 {
        fill: #999eb1;
      }
    </style>
  </defs>
  <g id="Group_1459" data-name="Group 1459" transform="translate(-1018 -301)">
    <path id="Path_392" data-name="Path 392" class="beginner-cls-1" d="M36,0A36,36,0,1,1,0,36,36,36,0,0,1,36,0Z" transform="translate(1018 301)"/>
    <g id="walk" transform="translate(1031.141 315.136)">
      <circle id="Ellipse_170" data-name="Ellipse 170" class="beginner-cls-2" cx="4.318" cy="4.318" r="4.318" transform="translate(19.48 1)"/>
      <path id="Path_345" data-name="Path 345" class="beginner-cls-3" d="M19.869,17.846l.849-4.523-8.168,4.1a1.727,1.727,0,0,0-.832.907L9.952,22.768a1.29,1.29,0,1,0,2.4.956L14,19.6Z" transform="translate(0 -1.681)"/>
      <path id="Path_346" data-name="Path 346" class="beginner-cls-3" d="M29.925,31.616l-6.6-4.96-1.475,5.036,5.307,3.033v6.908a1.727,1.727,0,0,0,3.454,0V33A1.727,1.727,0,0,0,29.925,31.616Z" transform="translate(-1.636 -3.501)"/>
      <path id="Path_347" data-name="Path 347" class="beginner-cls-2" d="M35.8,18.253a1.3,1.3,0,0,0-1.684-.722L30,19.148l-4.633-4.961a3.427,3.427,0,0,0-6,1.845S15,40.116,15,40.634a1.727,1.727,0,0,0,3.385.458L25.453,19.33,28.776,21.6a1.727,1.727,0,0,0,1.616.178l4.683-1.843A1.3,1.3,0,0,0,35.8,18.253Z" transform="translate(-0.701 -1.637)"/>
    </g>
  </g>
</svg>
