<svg xmlns="http://www.w3.org/2000/svg" xmlns:xlink="http://www.w3.org/1999/xlink" viewBox="0 0 166.347 41.563">
  <defs>
    <style>
      .tridot-logo-cls-1 {
        fill: #e40b14;
      }

      .tridot-logo-cls-2 {
        fill: #585858;
      }

      .tridot-logo-cls-3 {
        clip-path: url(#clip-path);
      }

      .tridot-logo-cls-4 {
        fill: #1c1b1a;
      }
    </style>
    <clipPath id="clip-path">
      <rect id="Rectangle_3" data-name="Rectangle 3" width="3.142" height="3.049"/>
    </clipPath>
  </defs>
  <g id="Group_6" data-name="Group 6" transform="translate(-39 -122)">
    <g id="Group_1" data-name="Group 1" transform="translate(39 122)">
      <path id="Path_1" data-name="Path 1" class="tridot-logo-cls-1" d="M39.212,11.212a7.858,7.858,0,0,1-8.917,4.944,6.584,6.584,0,0,1-1.617-.508l-1.71,1.617a5.762,5.762,0,0,1,.416,3.65,5.871,5.871,0,0,1-6.977,4.574,4.55,4.55,0,0,1-1.571-.554l-1.525,1.432a4.318,4.318,0,1,1-2.865-2.033,7.963,7.963,0,0,1,.97.323l1.294-1.663a5.869,5.869,0,0,1,6.1-9.01,6.155,6.155,0,0,1,.878.231l1.432-1.8a8.042,8.042,0,0,1-.924-5.5,7.7,7.7,0,0,1,4.251-5.452,20.772,20.772,0,1,0,12.66,23.472A21.027,21.027,0,0,0,39.212,11.212Z" transform="translate(0.028 0.028)"/>
    </g>
    <g id="Group_2" data-name="Group 2" transform="translate(86.557 126.633)">
      <path id="Path_2" data-name="Path 2" class="tridot-logo-cls-2" d="M110.57,44.5h-6.838l6.515-24.442H102.9l1.617-5.96H126.14l-1.617,5.96h-7.393Z" transform="translate(-102.9 -12.206)"/>
      <path id="Path_3" data-name="Path 3" class="tridot-logo-cls-2" d="M137.2,53.432,143.3,30.7h6.1l-.647,2.449a5.129,5.129,0,0,1,4.574-2.449h6.607l-1.479,5.452h-9.1a1.371,1.371,0,0,0-1.571,1.248l-4.3,16.033Z" transform="translate(-121.352 -21.136)"/>
      <path id="Path_4" data-name="Path 4" class="tridot-logo-cls-2" d="M186.438,16.838,188.286,10h6.33l-1.848,6.838ZM179.6,42.3l6.1-22.732h6.284l-6.1,22.732Z" transform="translate(-144.162 -10)"/>
      <path id="Path_5" data-name="Path 5" class="tridot-logo-cls-2" d="M202.3,44.5l5.96-22.178h6.746l-4.389,16.218h9.564c1.525,0,2.68-.97,3.188-2.911l3.373-12.66c.508-1.941-.092-2.911-1.663-2.911h-16.31l1.617-5.96h17.557c5.36,0,7.254,2.68,5.914,7.762L229.93,36.694c-1.34,5.082-4.713,7.762-10.072,7.762H202.3Z" transform="translate(-156.373 -12.206)"/>
      <path id="Path_6" data-name="Path 6" class="tridot-logo-cls-2" d="M268.743,53.432c-3.234,0-3.881-1.386-3.1-4.436l3.7-13.861c.832-3.049,2.218-4.436,5.452-4.436h15.478c3.327,0,3.927,1.386,3.142,4.436L289.72,49c-.832,3.049-2.172,4.436-5.5,4.436Zm17.788-16.079c.277-.97.046-1.248-1.063-1.248h-8.917c-.924,0-1.247.277-1.525,1.248l-2.495,9.241c-.231.878-.092,1.2.832,1.2h8.917c1.109,0,1.479-.323,1.71-1.2Z" transform="translate(-190.289 -21.136)"/>
      <path id="Path_7" data-name="Path 7" class="tridot-logo-cls-2" d="M326.643,46.062c-3.234,0-3.881-1.386-3.1-4.436L330.155,17h6.284l-1.71,6.33h5.5l-1.34,4.944h-5.5l-3.1,11.643c-.277.97-.046,1.2.832,1.2h4.112l-1.34,4.944Z" transform="translate(-221.437 -13.766)"/>
    </g>
    <g id="Group_4" data-name="Group 4" transform="translate(200.495 155.834)">
      <g id="Group_3" data-name="Group 3" class="tridot-logo-cls-3" transform="translate(0)">
        <path id="Path_8" data-name="Path 8" class="tridot-logo-cls-4" d="M351.475,73.2a1.131,1.131,0,0,1,1.109,1.525,2.173,2.173,0,0,1-1.941,1.525,1.131,1.131,0,0,1-1.109-1.525,2.173,2.173,0,0,1,1.941-1.525m-.739,2.726a1.673,1.673,0,0,0,1.478-1.2.891.891,0,0,0-.832-1.2,1.613,1.613,0,0,0-1.479,1.2.873.873,0,0,0,.832,1.2m.231-1.063h-.231l-.185.693h-.323l.462-1.663h.647c.416,0,.6.139.508.462a.7.7,0,0,1-.555.462l.231.739h-.37Zm.139-.231c.185,0,.37-.046.416-.231s-.139-.231-.277-.231h-.277l-.139.462Z" transform="translate(-349.489 -73.2)"/>
      </g>
    </g>
  </g>
</svg>
