<?xml version="1.0" encoding="utf-8"?>
<!-- Generator: Adobe Illustrator 20.0.0, SVG Export Plug-In . SVG Version: 6.00 Build 0)  -->
<svg version="1.1" id="Layer_1" xmlns="http://www.w3.org/2000/svg" xmlns:xlink="http://www.w3.org/1999/xlink" x="0px" y="0px"
	 viewBox="0 0 1000 650.8" style="enable-background:new 0 0 1000 650.8;" xml:space="preserve">
<style type="text/css">
	.st0{filter:url(#Adobe_OpacityMaskFilter);}
	.st1{fill:#FFFFFF;}
	.st2{mask:url(#b);fill:#7AC043;}
	.st3{fill:#7AC043;}
	.st4{fill:#D50F67;}
	.st5{fill:#49A847;}
	.st6{fill:#9C9EA1;}
</style>
<g>
	<g transform="translate(0 35.967)">
		<defs>
			<filter id="Adobe_OpacityMaskFilter" filterUnits="userSpaceOnUse" x="0" y="301" width="120" height="218.1">
				<feColorMatrix  type="matrix" values="1 0 0 0 0  0 1 0 0 0  0 0 1 0 0  0 0 0 1 0"/>
			</filter>
		</defs>
		<mask maskUnits="userSpaceOnUse" x="0" y="301" width="120" height="218.1" id="b">
			<g class="st0">
				<path id="a" class="st1" d="M0.3,301v217.5H120V301L0.3,301z"/>
			</g>
		</mask>
		<path class="st2" d="M5.6,443.3c-13,25.7-2.7,57.1,23,70.1s57.1,2.7,70.1-23c0.2-0.4,0.4-0.8,0.6-1.2l20.8-42.3L75.5,301
			L5.6,443.3z"/>
	</g>
	<path class="st3" d="M296.4,5.4c-25.8-12.7-57.1-2.1-69.8,23.8c0,0,0,0,0,0l-83.8,170.8l44.5,146L320.2,75.1
		C332.9,49.3,322.2,18.1,296.4,5.4C296.4,5.4,296.4,5.4,296.4,5.4"/>
	<path class="st4" d="M160,613.9c8.4,27.5,37.5,43,65.1,34.7c0,0,0,0,0,0c27.5-8.4,43.1-37.5,34.7-65.1c0,0,0,0,0,0l-72.4-237.5
		l-67.3,137L160,613.9L160,613.9z M113.5,103.9c-8.9-27.4-38.2-42.5-65.7-33.6c-26.8,8.6-41.9,37-34.1,64l61.8,202.7l67.3-137
		L113.5,103.9L113.5,103.9z"/>
	<path class="st5" d="M75.5,336.9l44.5,146l67.3-137l-44.5-146L75.5,336.9z"/>
	<path class="st6" d="M334.9,380.9h-79.8c-0.2-1.8-0.2-3.4-0.2-4.6c0-20.1,7.9-33.3,27.4-46.1c10.1-6.7,16.2-10.8,18.7-12.5
		c2.6-1.9,4.7-4.4,6.5-7.2c1.7-3,2.6-6.4,2.6-9.9c0-8.8-6-14.8-14.7-14.8c-10.6,0-16.6,7.4-16.9,21.2H255c0.4-15.2,3.9-24,12.7-31.2
		c7.4-6,16.4-9,27.9-9c24.2,0,39.5,12.7,39.5,32.8c0,15.9-8.1,26.9-30.2,41.1c-16.8,10.8-18.9,12.9-20.6,20.7h50.6
		C334.9,361.3,334.9,380.9,334.9,380.9z M368.3,346.3c0,10.9,7.2,17.8,18.3,17.8c10.4,0,17.1-5.8,17.1-14.8c0-10.8-6.7-15-24-15
		h-2.6v-19.2h2.5c16.6,0,23.1-4.1,23.1-14.5c0-8.5-6.5-14.7-15.7-14.7c-11,0-16.9,6.5-16.9,18.5v0.2h-24.5
		c0.7-14.5,4.1-22.1,12.9-29.1c7.2-5.8,16.9-8.8,29.1-8.8c23.7,0,39.2,12.2,39.2,30.9c0,13.2-7.6,22.9-21,26.3
		c4.8,1.1,6.5,1.8,9,3.2c8.8,4.6,13.4,12.9,13.4,23.5c0,20.1-15.9,32.6-40.9,32.6c-27.4,0-43.1-14.3-43.1-39.7h24.4
		C368.4,344.7,368.3,345.6,368.3,346.3 M489,342.8L481,344c-14.8,2.3-20.7,5.6-20.7,12.2c0,6,5.3,10.1,12.9,10.1
		c12.2,0,18.5-7.9,18.9-24C492.1,342.3,489,342.8,489,342.8z M477.7,293.2c12.4,0,22.2,3.3,28.6,9.9c6.2,6.2,8.3,13.1,8.3,28.2
		c-0.2,1.2-0.2,5.3-0.4,12.4v7.9c0,13.4,0.7,22.2,2.3,29.3h-19.9c-0.9-4.8-0.9-6.4-0.9-9.5v-3.5c-6.2,10.6-14.8,15-28.8,15
		c-18.2,0-30.9-10.6-30.9-25.8c0-6.3,2.5-12.3,6.5-16.6c4.9-5.1,11.1-7.8,22.8-10.1c9-1.6,18.7-3,26.8-3.5c0-12-4.2-17.1-14.1-17.1
		c-9.3,0-14.1,4.2-14.7,12.5h-24.2C440.4,304.2,454.7,293.2,477.7,293.2z M552.7,306.3c6.2-8.3,14.5-12.5,24.9-12.5
		c12.4,0,23,6.5,26.6,16.6c2.1,5.3,2.5,9.5,2.5,22.2v48.4h-23.5V331c0-13.8-3.9-19.2-13.6-19.2c-10.8,0-15.7,7.9-15.7,25v44.1h-23.5
		v-85.2h22.3L552.7,306.3L552.7,306.3z M659.1,363.6c10.8,0,18-10.1,18-25.4c-0.2-15.7-6.7-25.1-17.7-25.1
		c-10.9,0-17.8,9.9-17.8,25.2C641.6,353.2,648.9,363.6,659.1,363.6z M700.2,380.9H678v-11.3c-5.5,8.8-13.9,13.2-24.9,13.2
		c-20.7,0-35.1-18.2-35.1-44.3c0-26.7,13.8-44.8,34.1-44.8c11.5,0,19.1,3.9,24.7,12.7v-43h23.5V380.9z M850.9,380.9h-23.5v-94.6
		l-28.8,94.6h-25.6L744,286.3v94.6h-23.5V263.4h39.4l27,88.9l26.5-88.9h37.6L850.9,380.9z M926.8,328.5
		c-0.4-10.4-7.4-17.5-17.8-17.5c-10.2,0-16.6,6-18.5,17.5H926.8z M909.9,382.9c-26.5,0-43.4-17.5-43.4-45
		c0-26.5,17.1-44.1,42.7-44.1c25.8,0,42,17.7,42,46.2c0,1.4-0.2,2.5-0.2,5.5h-60.3c0.5,12.4,7.8,19.4,19.8,19.4
		c7.9,0,13.2-3.3,15.5-10.1H951C945.5,373.1,931,382.9,909.9,382.9L909.9,382.9z M982.9,306.3c-1-0.3-2.1-0.5-3.2-0.4h-1.3v6.1h2.1
		c1.1,0.1,2.1-0.2,3-0.8c0.7-0.5,1.1-1.3,1.1-2.5C984.5,307.5,984,306.7,982.9,306.3z M972.9,323.1v-20.9c3.4,0,6.8,0,10.1,0.1
		c1.7,0.1,3,0.5,4.1,1.1c1.8,1,2.8,2.7,2.8,5c0,1.8-0.5,3-1.5,3.8c-1.1,0.8-2.3,1.3-3.6,1.4c1.3,0.3,2.3,0.7,3,1.2
		c1.2,1,1.8,2.6,1.8,4.7v1.9c0,0.4,0.1,0.8,0.2,1.2l0.2,0.6h-5.2c-0.2-1-0.3-1.9-0.3-2.9c0-0.9-0.1-1.7-0.3-2.6
		c-0.3-0.7-0.8-1.3-1.5-1.5c-0.6-0.2-1.2-0.3-1.9-0.3l-1.2-0.1h-1.1v7.4C978.4,323.1,972.9,323.1,972.9,323.1z M970.1,301.7
		c-2.9,2.9-4.6,6.8-4.5,10.9c0,4.4,1.5,8.1,4.6,11.1c3,3,6.7,4.6,11,4.6c4.3,0,7.9-1.5,11-4.6c3-2.9,4.6-6.9,4.6-11.1
		c0-4.2-1.5-7.8-4.5-10.9c-2.8-3-6.8-4.7-11-4.7C977,296.9,972.9,298.6,970.1,301.7z M994.3,326.1c-3.5,3.5-8.3,5.4-13.2,5.3
		c-5,0.1-9.9-1.9-13.4-5.5c-3.6-3.5-5.5-8.4-5.4-13.4c0-5.5,2-10.1,5.9-13.7c3.5-3.3,8.1-5.2,13-5.1c5.2,0,9.6,1.8,13.3,5.5
		c3.7,3.7,5.5,8.1,5.5,13.3C1000.1,317.7,998,322.6,994.3,326.1z"/>
</g>
</svg>
