<svg xmlns="http://www.w3.org/2000/svg" width="17.387" height="14.537" viewBox="0 0 17.387 14.537">
  <g id="users-mm" transform="translate(-0.25 -2.211)">
    <path id="Path_780" data-name="Path 780" d="M17.611,16H20.5V12.876a.722.722,0,0,0-.454-.67l-2.7-1.083a.722.722,0,0,1-.454-.669V9.82a2.876,2.876,0,0,0,1.444-2.488V5.888A2.888,2.888,0,0,0,14,3.386" transform="translate(-3.612)" fill="none" stroke="#80909a" stroke-linecap="square" stroke-miterlimit="10" stroke-width="1.5"/>
    <path id="Path_781" data-name="Path 781" d="M10.656,13.206l-2.7-1.083a.722.722,0,0,1-.454-.669V10.82A2.875,2.875,0,0,0,8.943,8.333V6.888a2.888,2.888,0,0,0-5.777,0V8.333A2.875,2.875,0,0,0,4.611,10.82v.634a.722.722,0,0,1-.454.67l-2.7,1.083A.722.722,0,0,0,1,13.876v2.4H11.11v-2.4a.722.722,0,0,0-.454-.67Z" transform="translate(0 -0.278)" fill="none" stroke="#80909a" stroke-linecap="square" stroke-miterlimit="10" stroke-width="1.5"/>
  </g>
</svg>
