<svg xmlns="http://www.w3.org/2000/svg" viewBox="0 0 148.333 148.333">
  <defs>
    <style>
      .bike-logo-lg-cls-1 {
        fill: #ea7e2e;
      }

      .bike-logo-lg-cls-2 {
        fill: #ba6424;
        stroke: #ba6424;
        stroke-width: 3px;
      }

      .bike-logo-lg-cls-3 {
        fill: #fff;
      }
    </style>
  </defs>
  <g id="Group_518" data-name="Group 518" transform="translate(-1366.833 -526.522)">
    <rect id="Rectangle_457" data-name="Rectangle 457" class="bike-logo-lg-cls-1" width="148.333" height="148.333" rx="74.167" transform="translate(1366.833 526.522)"/>
    <g id="cyclist" transform="translate(1397.632 554.5)">
      <path id="Path_279" data-name="Path 279" class="bike-logo-lg-cls-2" d="M17.4,36A16.4,16.4,0,1,0,33.8,52.4,16.4,16.4,0,0,0,17.4,36Zm0,30.068A13.667,13.667,0,1,1,31.068,52.4,13.667,13.667,0,0,1,17.4,66.068Z" transform="translate(0 13.199)"/>
      <path id="Path_280" data-name="Path 280" class="bike-logo-lg-cls-2" d="M55.4,36A16.4,16.4,0,1,0,71.8,52.4,16.4,16.4,0,0,0,55.4,36Zm0,30.068A13.667,13.667,0,1,1,69.068,52.4,13.667,13.667,0,0,1,55.4,66.068Z" transform="translate(13.935 13.199)"/>
      <circle id="Ellipse_163" data-name="Ellipse 163" class="bike-logo-lg-cls-3" cx="7.517" cy="7.517" r="7.517" transform="translate(53.935 4)"/>
      <path id="Path_281" data-name="Path 281" class="bike-logo-lg-cls-3" d="M53.412,32.617a2.866,2.866,0,0,0,2.344.887l12.275-1.121a2.247,2.247,0,0,0,2.043-2.238h0A2.247,2.247,0,0,0,67.828,27.9h-10.7l-8.6-10.747A5.731,5.731,0,0,0,44.37,15,5.654,5.654,0,0,0,40,16.673L21.857,34.81a5.731,5.731,0,0,0-1.366,5.934,5.922,5.922,0,0,0,2.486,3.046l11.275,7.179V71.514a2.237,2.237,0,0,0,4.466.182L40.557,49.24a2.866,2.866,0,0,0-.782-2.211l-8.084-8.5L45.345,24.1Z" transform="translate(5.88 3.041)"/>
    </g>
  </g>
</svg>
