<svg xmlns="http://www.w3.org/2000/svg" viewBox="0 0 57.097 57.096">
  <defs>
    <style>
      .bike-logo-cls-1, .bike-logo-cls-5 {
        fill: #fff;
      }

      .bike-logo-cls-2 {
        fill: #aaa;
        font-size: 27px;
        font-family: AzoSans-Bold, Azo Sans;
        font-weight: 700;
        letter-spacing: -0.01em;
      }

      .bike-logo-cls-3 {
        fill: #ea7e2e;
        stroke: #ea7e2e;
        stroke-width: 4px;
      }

      .bike-logo-cls-4 {
        fill: #f7f7f7;
        stroke: #fff;
      }

      .bike-logo-cls-6, .bike-logo-cls-7 {
        stroke: none;
      }

      .bike-logo-cls-7 {
        fill: #61d072;
      }

      .bike-logo-cls-8 {
        fill: none;
      }
    </style>
  </defs>
  <g id="Group_525" data-name="Group 525" transform="translate(-745 -508.904)">
    <g id="Path_95" data-name="Path 95" class="bike-logo-cls-1" transform="translate(749 512.904)">
      <path class="bike-logo-cls-6" d="M 24.5481128692627 51.09622192382812 C 20.96502304077148 51.09622192382812 17.4880428314209 50.39402389526367 14.21377277374268 49.00912475585938 C 11.05220317840576 47.67189407348633 8.213253021240234 45.75795364379883 5.775763034820557 43.32046127319336 C 3.3382728099823 40.88297271728516 1.424332857131958 38.04402160644531 0.08710286766290665 34.88245391845703 C -1.297797083854675 31.60818290710449 -1.999997138977051 28.13120269775391 -1.999997138977051 24.5481128692627 C -1.999997138977051 20.96502304077148 -1.297797083854675 17.4880428314209 0.08710286766290665 14.21377277374268 C 1.424332857131958 11.05220317840576 3.3382728099823 8.213253021240234 5.775763034820557 5.775763034820557 C 8.213253021240234 3.3382728099823 11.05220317840576 1.424332857131958 14.21377277374268 0.08710286766290665 C 17.4880428314209 -1.297797083854675 20.96502304077148 -1.999997138977051 24.5481128692627 -1.999997138977051 C 28.13120269775391 -1.999997138977051 31.60818290710449 -1.297797083854675 34.88245391845703 0.08710286766290665 C 38.04402160644531 1.424332857131958 40.88297271728516 3.3382728099823 43.32046127319336 5.775763034820557 C 45.75795364379883 8.213253021240234 47.67189407348633 11.05220317840576 49.00912475585938 14.21377277374268 C 50.39402389526367 17.4880428314209 51.09622192382812 20.96502304077148 51.09622192382812 24.5481128692627 C 51.09622192382812 28.13120269775391 50.39402389526367 31.60818290710449 49.00912475585938 34.88245391845703 C 47.67189407348633 38.04402160644531 45.75795364379883 40.88297271728516 43.32046127319336 43.32046127319336 C 40.88297271728516 45.75795364379883 38.04402160644531 47.67189407348633 34.88245391845703 49.00912475585938 C 31.60818290710449 50.39402389526367 28.13120269775391 51.09622192382812 24.5481128692627 51.09622192382812 Z"/>
      <path class="bike-logo-cls-7" d="M 24.5481128692627 49.09622192382812 C 38.10566329956055 49.09622192382812 49.09622192382812 38.10566329956055 49.09622192382812 24.5481128692627 C 49.09622192382812 10.99056243896484 38.10566329956055 2.869262743843137e-06 24.5481128692627 2.869262743843137e-06 C 10.99056243896484 2.869262743843137e-06 2.869262743843137e-06 10.99056243896484 2.869262743843137e-06 24.5481128692627 C 2.869262743843137e-06 38.10566329956055 10.99056243896484 49.09622192382812 24.5481128692627 49.09622192382812 M 24.5481128692627 53.09622192382812 C 20.69590377807617 53.09622192382812 16.95680236816406 52.34086227416992 13.43467330932617 50.85113143920898 C 10.03470325469971 49.41306304931641 6.982062816619873 47.35519409179688 4.361552715301514 44.73467254638672 C 1.741032838821411 42.11416244506836 -0.3168371319770813 39.0615234375 -1.754907131195068 35.66155242919922 C -3.244637012481689 32.13942337036133 -3.999997138977051 28.40032196044922 -3.999997138977051 24.5481128692627 C -3.999997138977051 20.69590377807617 -3.244637012481689 16.95680236816406 -1.754907131195068 13.43467330932617 C -0.3168371319770813 10.03470325469971 1.741032838821411 6.982062816619873 4.361552715301514 4.361552715301514 C 6.982062816619873 1.741032838821411 10.03470325469971 -0.3168371319770813 13.43467330932617 -1.754907131195068 C 16.95680236816406 -3.244637012481689 20.69590377807617 -3.999997138977051 24.5481128692627 -3.999997138977051 C 28.40032196044922 -3.999997138977051 32.13942337036133 -3.244637012481689 35.66155242919922 -1.754907131195068 C 39.0615234375 -0.3168371319770813 42.11416244506836 1.741032838821411 44.73467254638672 4.361552715301514 C 47.35519409179688 6.982062816619873 49.41306304931641 10.03470325469971 50.85113143920898 13.43467330932617 C 52.34086227416992 16.95680236816406 53.09622192382812 20.69590377807617 53.09622192382812 24.5481128692627 C 53.09622192382812 28.40032196044922 52.34086227416992 32.13942337036133 50.85113143920898 35.66155242919922 C 49.41306304931641 39.0615234375 47.35519409179688 42.11416244506836 44.73467254638672 44.73467254638672 C 42.11416244506836 47.35519409179688 39.0615234375 49.41306304931641 35.66155242919922 50.85113143920898 C 32.13942337036133 52.34086227416992 28.40032196044922 53.09622192382812 24.5481128692627 53.09622192382812 Z"/>
    </g>
    <text id="_23" data-name="23" class="bike-logo-cls-2" transform="translate(773.034 547.045)"><tspan x="-15.417" y="0">23</tspan></text>
    <g id="Group_519" data-name="Group 519">
      <g id="Ellipse_164" data-name="Ellipse 164" class="bike-logo-cls-3" transform="translate(749 512.904)">
        <circle class="bike-logo-cls-6" cx="24.548" cy="24.548" r="24.548"/>
        <circle class="bike-logo-cls-8" cx="24.548" cy="24.548" r="26.548"/>
      </g>
      <g id="cyclist" transform="translate(756.189 517.045)">
        <path id="Path_282" data-name="Path 282" class="bike-logo-cls-4" d="M7.507,36a6.507,6.507,0,1,0,6.507,6.507A6.507,6.507,0,0,0,7.507,36Zm0,11.93a5.423,5.423,0,1,1,5.423-5.423A5.423,5.423,0,0,1,7.507,47.93Z" transform="translate(0 -15.105)"/>
        <path id="Path_283" data-name="Path 283" class="bike-logo-cls-4" d="M45.507,36a6.507,6.507,0,1,0,6.507,6.507A6.507,6.507,0,0,0,45.507,36Zm0,11.93a5.423,5.423,0,1,1,5.423-5.423,5.423,5.423,0,0,1-5.423,5.423Z" transform="translate(-17.393 -15.105)"/>
        <circle id="Ellipse_165" data-name="Ellipse 165" class="bike-logo-cls-5" cx="2.983" cy="2.983" r="2.983" transform="translate(21.607 3)"/>
        <path id="Path_284" data-name="Path 284" class="bike-logo-cls-5" d="M32.754,21.663a1.085,1.085,0,0,0,.887.336l4.646-.424a.85.85,0,0,0,.773-.847h0a.85.85,0,0,0-.85-.85H34.158L30.9,15.81A2.169,2.169,0,0,0,29.332,15a2.14,2.14,0,0,0-1.654.632l-6.866,6.864a2.169,2.169,0,0,0-.517,2.246,2.241,2.241,0,0,0,.941,1.153L25.5,28.608v7.776a.846.846,0,0,0,1.69.069l.7-8.5a1.085,1.085,0,0,0-.3-.837L24.533,23.9l5.167-5.46Z" transform="translate(-8.777 -5.489)"/>
      </g>
    </g>
  </g>
</svg>
