<svg xmlns="http://www.w3.org/2000/svg" viewBox="0 0 28.188 28.187">
  <defs>
    <style>
      .ig-logo-cls-1 {
        fill: #c3c6cc;
      }
    </style>
  </defs>
  <path id="Subtraction_3" data-name="Subtraction 3" class="ig-logo-cls-1" d="M-11304.905,12003.187a14,14,0,0,1-9.967-4.128,14,14,0,0,1-4.129-9.964,14,14,0,0,1,4.129-9.967,14,14,0,0,1,9.967-4.128,14,14,0,0,1,9.964,4.128,14,14,0,0,1,4.128,9.967,14,14,0,0,1-4.128,9.964A14,14,0,0,1-11304.905,12003.187Zm0-21.141c-1.89,0-2.142.008-2.9.042a4.207,4.207,0,0,0-2.958,1.142,4.207,4.207,0,0,0-1.142,2.958c-.034.766-.042,1.019-.042,2.9s.008,2.141.042,2.907a4.207,4.207,0,0,0,1.142,2.958,4.217,4.217,0,0,0,2.958,1.142c.763.034,1.015.042,2.9.042s2.141-.008,2.906-.042a4.218,4.218,0,0,0,2.959-1.142,4.217,4.217,0,0,0,1.142-2.958c.034-.767.042-1.02.042-2.907s-.008-2.139-.042-2.9a4.217,4.217,0,0,0-1.142-2.958,4.208,4.208,0,0,0-2.959-1.142C-11302.768,11982.054-11303.021,11982.046-11304.908,11982.046Zm0,12.826c-1.905,0-2.123-.01-2.847-.042a3.058,3.058,0,0,1-2.118-.771,3.064,3.064,0,0,1-.769-2.118c-.037-.748-.042-.979-.042-2.85s0-2.1.042-2.847a2.891,2.891,0,0,1,.769-2.118,3.058,3.058,0,0,1,2.118-.771c.736-.033.959-.04,2.847-.04s2.113.007,2.85.04a3.058,3.058,0,0,1,2.117.771,3.086,3.086,0,0,1,.771,2.118c.033.729.039.927.039,2.85s-.006,2.118-.039,2.847a2.907,2.907,0,0,1-.771,2.118,3.058,3.058,0,0,1-2.117.771C-11302.782,11994.862-11303,11994.872-11304.908,11994.872Zm0-9.4a3.622,3.622,0,0,0-3.618,3.618,3.623,3.623,0,0,0,3.618,3.621,3.624,3.624,0,0,0,3.62-3.621A3.623,3.623,0,0,0-11304.908,11985.474Zm3.762-.988a.847.847,0,0,0-.846.847.846.846,0,0,0,.846.844.846.846,0,0,0,.847-.844A.848.848,0,0,0-11301.146,11984.485Zm-3.762,6.956a2.351,2.351,0,0,1-2.347-2.35,2.349,2.349,0,0,1,2.347-2.347,2.351,2.351,0,0,1,2.35,2.347A2.352,2.352,0,0,1-11304.908,11991.441Z" transform="translate(11319.001 -11974.999)"/>
</svg>
