<svg xmlns="http://www.w3.org/2000/svg" viewBox="0 0 57.097 57.096">
  <defs>
    <style>
      .lift-logo-cls-1, .lift-logo-cls-4 {
        fill: #eff0f0;
      }

      .lift-logo-cls-2 {
        fill: #d8d8d8;
      }

      .lift-logo-cls-3, .lift-logo-cls-4 {
        stroke: none;
      }
    </style>
  </defs>
  <g id="Group_533" data-name="Group 533" transform="translate(-477 -515.904)">
    <g id="Path_292" data-name="Path 292" class="lift-logo-cls-1" transform="translate(481 519.904)">
      <path class="lift-logo-cls-3" d="M 24.5481128692627 51.09622192382812 C 20.96502304077148 51.09622192382812 17.4880428314209 50.39402389526367 14.21377277374268 49.00912475585938 C 11.05220317840576 47.67189407348633 8.213253021240234 45.75795364379883 5.775763034820557 43.32046127319336 C 3.3382728099823 40.88297271728516 1.424332857131958 38.04402160644531 0.08710286766290665 34.88245391845703 C -1.297797083854675 31.60818290710449 -1.999997138977051 28.13120269775391 -1.999997138977051 24.5481128692627 C -1.999997138977051 20.96502304077148 -1.297797083854675 17.4880428314209 0.08710286766290665 14.21377277374268 C 1.424332857131958 11.05220317840576 3.3382728099823 8.213253021240234 5.775763034820557 5.775763034820557 C 8.213253021240234 3.3382728099823 11.05220317840576 1.424332857131958 14.21377277374268 0.08710286766290665 C 17.4880428314209 -1.297797083854675 20.96502304077148 -1.999997138977051 24.5481128692627 -1.999997138977051 C 28.13120269775391 -1.999997138977051 31.60818290710449 -1.297797083854675 34.88245391845703 0.08710286766290665 C 38.04402160644531 1.424332857131958 40.88297271728516 3.3382728099823 43.32046127319336 5.775763034820557 C 45.75795364379883 8.213253021240234 47.67189407348633 11.05220317840576 49.00912475585938 14.21377277374268 C 50.39402389526367 17.4880428314209 51.09622192382812 20.96502304077148 51.09622192382812 24.5481128692627 C 51.09622192382812 28.13120269775391 50.39402389526367 31.60818290710449 49.00912475585938 34.88245391845703 C 47.67189407348633 38.04402160644531 45.75795364379883 40.88297271728516 43.32046127319336 43.32046127319336 C 40.88297271728516 45.75795364379883 38.04402160644531 47.67189407348633 34.88245391845703 49.00912475585938 C 31.60818290710449 50.39402389526367 28.13120269775391 51.09622192382812 24.5481128692627 51.09622192382812 Z"/>
      <path class="lift-logo-cls-4" d="M 24.5481128692627 49.09622192382812 C 38.10566329956055 49.09622192382812 49.09622192382812 38.10566329956055 49.09622192382812 24.5481128692627 C 49.09622192382812 10.99056243896484 38.10566329956055 2.869262743843137e-06 24.5481128692627 2.869262743843137e-06 C 10.99056243896484 2.869262743843137e-06 2.869262743843137e-06 10.99056243896484 2.869262743843137e-06 24.5481128692627 C 2.869262743843137e-06 38.10566329956055 10.99056243896484 49.09622192382812 24.5481128692627 49.09622192382812 M 24.5481128692627 53.09622192382812 C 20.69590377807617 53.09622192382812 16.95680236816406 52.34086227416992 13.43467330932617 50.85113143920898 C 10.03470325469971 49.41306304931641 6.982062816619873 47.35519409179688 4.361552715301514 44.73467254638672 C 1.741032838821411 42.11416244506836 -0.3168371319770813 39.0615234375 -1.754907131195068 35.66155242919922 C -3.244637012481689 32.13942337036133 -3.999997138977051 28.40032196044922 -3.999997138977051 24.5481128692627 C -3.999997138977051 20.69590377807617 -3.244637012481689 16.95680236816406 -1.754907131195068 13.43467330932617 C -0.3168371319770813 10.03470325469971 1.741032838821411 6.982062816619873 4.361552715301514 4.361552715301514 C 6.982062816619873 1.741032838821411 10.03470325469971 -0.3168371319770813 13.43467330932617 -1.754907131195068 C 16.95680236816406 -3.244637012481689 20.69590377807617 -3.999997138977051 24.5481128692627 -3.999997138977051 C 28.40032196044922 -3.999997138977051 32.13942337036133 -3.244637012481689 35.66155242919922 -1.754907131195068 C 39.0615234375 -0.3168371319770813 42.11416244506836 1.741032838821411 44.73467254638672 4.361552715301514 C 47.35519409179688 6.982062816619873 49.41306304931641 10.03470325469971 50.85113143920898 13.43467330932617 C 52.34086227416992 16.95680236816406 53.09622192382812 20.69590377807617 53.09622192382812 24.5481128692627 C 53.09622192382812 28.40032196044922 52.34086227416992 32.13942337036133 50.85113143920898 35.66155242919922 C 49.41306304931641 39.0615234375 47.35519409179688 42.11416244506836 44.73467254638672 44.73467254638672 C 42.11416244506836 47.35519409179688 39.0615234375 49.41306304931641 35.66155242919922 50.85113143920898 C 32.13942337036133 52.34086227416992 28.40032196044922 53.09622192382812 24.5481128692627 53.09622192382812 Z"/>
    </g>
    <g id="Group_532" data-name="Group 532">
      <path id="Path_289" data-name="Path 289" class="lift-logo-cls-2" d="M5.364,19H3.728a.546.546,0,0,0-.546.546V23.91H1.546A.546.546,0,0,0,1,24.456v3.273a.546.546,0,0,0,.546.546H3.182v4.364a.546.546,0,0,0,.546.546H5.364a.546.546,0,0,0,.546-.546V19.546A.546.546,0,0,0,5.364,19Z" transform="translate(488.088 517.908)"/>
      <path id="Path_290" data-name="Path 290" class="lift-logo-cls-2" d="M33.277,11H30a.546.546,0,0,0-.546.546v8.729H16.364V11.546A.546.546,0,0,0,15.819,11H12.546a.546.546,0,0,0-.546.546V33.368a.546.546,0,0,0,.546.546h3.273a.546.546,0,0,0,.546-.546V24.639H29.458v8.729a.546.546,0,0,0,.546.546h3.273a.546.546,0,0,0,.546-.546V11.546A.546.546,0,0,0,33.277,11Z" transform="translate(483.089 521.543)"/>
      <path id="Path_291" data-name="Path 291" class="lift-logo-cls-2" d="M58.364,23.91H56.728V19.546A.546.546,0,0,0,56.182,19H54.546a.546.546,0,0,0-.546.546V32.639a.546.546,0,0,0,.546.546h1.637a.546.546,0,0,0,.546-.546V28.274h1.637a.546.546,0,0,0,.546-.546V24.456A.546.546,0,0,0,58.364,23.91Z" transform="translate(464.002 517.908)"/>
    </g>
  </g>
</svg>
