<svg xmlns="http://www.w3.org/2000/svg" viewBox="0 0 28.188 28.187">
  <defs>
    <style>
      .linkedin-logo-cls-1 {
        fill: #c3c6cc;
      }
    </style>
  </defs>
  <path id="Subtraction_4" data-name="Subtraction 4" class="linkedin-logo-cls-1" d="M-11304.905,12003.187a14,14,0,0,1-9.967-4.128,14,14,0,0,1-4.129-9.964,14,14,0,0,1,4.129-9.967,14,14,0,0,1,9.967-4.128,14,14,0,0,1,9.964,4.128,14,14,0,0,1,4.128,9.967,14,14,0,0,1-4.128,9.964A14,14,0,0,1-11304.905,12003.187Zm-6.453-21.141a.6.6,0,0,0-.6.6v12.927a.592.592,0,0,0,.6.572h12.927a.587.587,0,0,0,.593-.594v-12.905a.625.625,0,0,0-.614-.6Zm6.98,12h-2.091v-6.715h2v.925h.021a2.2,2.2,0,0,1,1.981-1.078c2.206,0,2.51,1.535,2.51,3.193v3.674h-2.091v-3.259c0-.709,0-1.781-1.078-1.781-1.113,0-1.256.916-1.256,1.715v3.325Zm-3.393,0h-2.091v-6.715h2.091v6.714Zm-1.058-7.64a1.225,1.225,0,0,1-1.207-1.211,1.225,1.225,0,0,1,1.207-1.211,1.213,1.213,0,0,1,1.212,1.211A1.2,1.2,0,0,1-11308.828,11986.407Z" transform="translate(11319.001 -11974.999)"/>
</svg>
