<svg id="Group_2458" data-name="Group 2458" xmlns="http://www.w3.org/2000/svg" width="28.385" height="28.394" viewBox="0 0 28.385 28.394">
  <path id="Path_1" data-name="Path 1" d="M26.779,7.651a5.368,5.368,0,0,1-6.092,3.377,4.5,4.5,0,0,1-1.1-.347l-1.168,1.1a3.937,3.937,0,0,1,.284,2.494A4.011,4.011,0,0,1,13.932,17.4a3.108,3.108,0,0,1-1.073-.379L11.817,18A2.95,2.95,0,1,1,9.86,16.615a5.44,5.44,0,0,1,.663.221l.884-1.136a4.01,4.01,0,0,1,4.166-6.155,4.2,4.2,0,0,1,.6.158l.978-1.231a5.494,5.494,0,0,1-.631-3.756,5.261,5.261,0,0,1,2.9-3.725,14.191,14.191,0,1,0,8.649,16.035A14.365,14.365,0,0,0,26.779,7.651Z" transform="translate(0.028 0.028)" fill="#e40b14"/>
</svg>
