<svg xmlns="http://www.w3.org/2000/svg" width="16.387" height="15.719" viewBox="0 0 16.387 15.719">
  <g id="man-23" transform="translate(-0.257 -0.248)">
    <path id="Path_790" data-name="Path 790" d="M14.876,12.248c-1.247-.318-3.244-.826-3.656-.926a1.5,1.5,0,0,1-1.185-1.106A1.507,1.507,0,0,1,10.5,8.429a3.371,3.371,0,0,0,1.338-2.689V4.531A3.483,3.483,0,0,0,8.782,1.016,3.386,3.386,0,0,0,5.064,4.385V5.739A3.367,3.367,0,0,0,6.4,8.428a1.507,1.507,0,0,1,.462,1.788A1.5,1.5,0,0,1,5.68,11.322c-.413.1-2.409.608-3.656.926a1.346,1.346,0,0,0-1.017,1.311c0,.428,0,.982,0,1.658H15.892c0-.676,0-1.23,0-1.658A1.348,1.348,0,0,0,14.876,12.248Z" transform="translate(0 0)" fill="none" stroke="#80909a" stroke-linecap="square" stroke-miterlimit="10" stroke-width="1.5"/>
  </g>
</svg>
