<svg xmlns="http://www.w3.org/2000/svg" viewBox="0 0 57.097 57.096">
  <defs>
    <style>
      .run-logo-cls-1 {
        fill: #569653;
        stroke: #569653;
        stroke-width: 4px;
      }

      .run-logo-cls-2 {
        fill: #fff;
      }

      .run-logo-cls-3 {
        stroke: none;
      }

      .run-logo-cls-4 {
        fill: none;
      }
    </style>
  </defs>
  <g id="Group_524" data-name="Group 524" transform="translate(-814 -508.904)">
    <g id="Ellipse_26" data-name="Ellipse 26" class="run-logo-cls-1" transform="translate(818 512.904)">
      <circle class="run-logo-cls-3" cx="24.548" cy="24.548" r="24.548"/>
      <circle class="run-logo-cls-4" cx="24.548" cy="24.548" r="26.548"/>
    </g>
    <path id="Path_99" data-name="Path 99" class="run-logo-cls-2" d="M7.631,20.263H11.42a.631.631,0,0,0,0-1.263H7.631a.631.631,0,1,0,0,1.263Z" transform="translate(824.369 513.825)"/>
    <path id="Path_98" data-name="Path 98" class="run-logo-cls-2" d="M1.631,27.263H5.42A.631.631,0,1,0,5.42,26H1.631a.631.631,0,1,0,0,1.263Z" transform="translate(826.58 511.245)"/>
    <circle id="Ellipse_27" data-name="Ellipse 27" class="run-logo-cls-2" cx="3.157" cy="3.157" r="3.157" transform="translate(847.153 522.723)"/>
    <path id="Path_97" data-name="Path 97" class="run-logo-cls-2" d="M11.522,29.277a1.263,1.263,0,0,0-1.775.2L7.479,32.31.93,34.1a1.263,1.263,0,1,0,.665,2.437L8.54,34.638a1.261,1.261,0,0,0,.654-.43l2.526-3.157A1.262,1.262,0,0,0,11.522,29.277Z" transform="translate(826.949 510.139)"/>
    <path id="Path_100" data-name="Path 100" class="run-logo-cls-2" d="M34.572,11.284a1.309,1.309,0,0,0-1.671.185l-2.953,2.953L19.463,6.266a1.267,1.267,0,0,0-1.509-.031L13.595,9.349a1.314,1.314,0,0,0-.423,1.7,1.264,1.264,0,0,0,1.831.4l3.654-2.61,3.1,2.411-4.334,4.334A3.321,3.321,0,0,0,16.4,17.989a3.144,3.144,0,0,0,1.519,2.623l4.584,2.78L18.994,27.9a1.307,1.307,0,0,0,.032,1.688,1.264,1.264,0,0,0,1.922-.086l4.42-5.683a1.263,1.263,0,0,0-.342-1.855l-3.692-2.239a.631.631,0,0,1-.1-1.007l4.67-4.245L29.278,17.1a1.263,1.263,0,0,0,1.668-.1l3.788-3.788A1.263,1.263,0,0,0,34.572,11.284Z" transform="translate(822.151 518.617)"/>
  </g>
</svg>
