<svg xmlns="http://www.w3.org/2000/svg" viewBox="0 0 57.097 57.096">
  <defs>
    <style>
      .swim-logo-cls-1 {
        fill: #5b8195;
        stroke: #5b8195;
        stroke-width: 4px;
      }

      .swim-logo-cls-2, .swim-logo-cls-3 {
        fill: #fff;
      }

      .swim-logo-cls-3 {
        stroke: #fff;
      }

      .swim-logo-cls-4 {
        stroke: none;
      }

      .swim-logo-cls-5 {
        fill: none;
      }
    </style>
  </defs>
  <g id="Group_526" data-name="Group 526" transform="translate(-675 -508.904)">
    <g id="Ellipse_25" data-name="Ellipse 25" class="swim-logo-cls-1" transform="translate(679 512.904)">
      <circle class="swim-logo-cls-4" cx="24.548" cy="24.548" r="24.548"/>
      <circle class="swim-logo-cls-5" cx="24.548" cy="24.548" r="26.548"/>
    </g>
    <path id="Path_93" data-name="Path 93" class="swim-logo-cls-2" d="M41.542,20a3.542,3.542,0,1,0,3.542,3.542A3.547,3.547,0,0,0,41.542,20Z" transform="translate(669.047 508.174)"/>
    <path id="Path_94" data-name="Path 94" class="swim-logo-cls-2" d="M22.562,10.733A1.518,1.518,0,1,0,20.741,8.3l-6.073,4.555a1.518,1.518,0,0,0-.327,2.093l3.7,5.209L9,26.724H26.712L17.673,14.4Z" transform="translate(683.371 514.101)"/>
    <path id="Path_96" data-name="Path 96" class="swim-logo-cls-3" d="M27.809,52.061a4.6,4.6,0,0,1-3.542-1.745,4.469,4.469,0,0,1-7.085,0,4.469,4.469,0,0,1-7.085,0,4.6,4.6,0,0,1-3.542,1.745A4.56,4.56,0,0,1,2,47.506a.506.506,0,0,1,1.012,0,3.547,3.547,0,0,0,3.542,3.542A3.658,3.658,0,0,0,9.66,49.174a.525.525,0,0,1,.874,0,3.658,3.658,0,0,0,3.106,1.875,3.658,3.658,0,0,0,3.106-1.875.525.525,0,0,1,.874,0,3.51,3.51,0,0,0,6.211,0,.525.525,0,0,1,.874,0,3.658,3.658,0,0,0,3.106,1.875,3.547,3.547,0,0,0,3.542-3.542.506.506,0,0,1,1.012,0A4.56,4.56,0,0,1,27.809,52.061Z" transform="translate(686.828 494.838)"/>
  </g>
</svg>
