<svg xmlns="http://www.w3.org/2000/svg" viewBox="0 0 148.333 148.333">
  <defs>
    <style>
      .swim-logo-lg-cls-1 {
        fill: #5fb1dd;
      }

      .swim-logo-lg-cls-2 {
        fill: #fff;
      }

      .swim-logo-lg-cls-3 {
        fill: #437e9d;
        stroke: #437e9d;
        stroke-width: 2px;
      }
    </style>
  </defs>
  <g id="Group_517" data-name="Group 517" transform="translate(-1044.833 -526.522)">
    <rect id="Rectangle_456" data-name="Rectangle 456" class="swim-logo-lg-cls-1" width="148.333" height="148.333" rx="74.167" transform="translate(1044.833 526.522)"/>
    <g id="user-swim" transform="translate(1068.563 548.943)">
      <path id="Path_273" data-name="Path 273" class="swim-logo-lg-cls-2" d="M49.3,20A11.3,11.3,0,1,0,60.6,31.3,11.316,11.316,0,0,0,49.3,20Z" transform="translate(22.124 7.375)"/>
      <path id="Path_274" data-name="Path 274" class="swim-logo-lg-cls-2" d="M52.27,16.719a4.844,4.844,0,0,0-5.812-7.751L27.083,23.5a4.845,4.845,0,0,0-1.044,6.679L37.837,46.8,9,67.739H65.51L36.67,28.418Z" transform="translate(4.302 0)"/>
      <path id="Path_275" data-name="Path 275" class="swim-logo-lg-cls-3" d="M84.343,63.146a14.688,14.688,0,0,1-11.3-5.566,14.258,14.258,0,0,1-22.6,0,14.688,14.688,0,0,1-11.3,5.566,14.688,14.688,0,0,1-11.3-5.566,14.688,14.688,0,0,1-11.3,5.566A14.547,14.547,0,0,1,2,48.615a1.615,1.615,0,1,1,3.229,0,11.316,11.316,0,0,0,11.3,11.3,11.671,11.671,0,0,0,9.908-5.981,1.676,1.676,0,0,1,2.788,0,11.671,11.671,0,0,0,9.908,5.981,11.671,11.671,0,0,0,9.908-5.981,1.676,1.676,0,0,1,2.788,0,11.2,11.2,0,0,0,19.816,0,1.676,1.676,0,0,1,2.788,0,11.671,11.671,0,0,0,9.908,5.981,11.316,11.316,0,0,0,11.3-11.3,1.615,1.615,0,1,1,3.229,0A14.547,14.547,0,0,1,84.343,63.146Z" transform="translate(0 23.968)"/>
    </g>
  </g>
</svg>
