<svg xmlns="http://www.w3.org/2000/svg" xmlns:xlink="http://www.w3.org/1999/xlink" width="340" height="214" viewBox="0 0 340 214">
  <defs>
    <clipPath id="clip-path">
      <rect id="Rectangle_3" data-name="Rectangle 3" width="3.75" height="3.64" fill="#fff"/>
    </clipPath>
  </defs>
  <g id="Group_1871" data-name="Group 1871" transform="translate(-927 -400)">
    <rect id="Rectangle_1117" data-name="Rectangle 1117" width="340" height="214" transform="translate(927 400)" fill="#585858"/>
    <path id="Path_696" data-name="Path 696" d="M340,0V214H0Z" transform="translate(927 400)" opacity="0.082"/>
    <g id="Group_1870" data-name="Group 1870" transform="translate(950.498 356.394)">
      <g id="Group_1" data-name="Group 1" transform="translate(39 122)">
        <path id="Path_1" data-name="Path 1" d="M46.8,13.387a9.379,9.379,0,0,1-10.643,5.9,7.858,7.858,0,0,1-1.93-.607l-2.04,1.93a6.877,6.877,0,0,1,.5,4.356,7.007,7.007,0,0,1-8.327,5.459,5.43,5.43,0,0,1-1.875-.662l-1.82,1.709a5.154,5.154,0,1,1-3.419-2.426,9.5,9.5,0,0,1,1.158.386l1.544-1.985A7.005,7.005,0,0,1,27.229,16.7a7.346,7.346,0,0,1,1.048.276l1.709-2.151a9.6,9.6,0,0,1-1.1-6.562,9.19,9.19,0,0,1,5.073-6.507,24.792,24.792,0,1,0,15.11,28.013A25.1,25.1,0,0,0,46.8,13.387Z" transform="translate(0.028 0.028)" fill="#e40b14"/>
      </g>
      <g id="Group_2" data-name="Group 2" transform="translate(95.759 127.53)">
        <path id="Path_2" data-name="Path 2" d="M112.054,50.385h-8.161l7.775-29.171H102.9l1.93-7.114h25.807l-1.93,7.114h-8.823Z" transform="translate(-102.9 -11.839)" fill="#fff"/>
        <path id="Path_3" data-name="Path 3" d="M137.2,57.831,144.479,30.7h7.279l-.772,2.923a6.122,6.122,0,0,1,5.459-2.923h7.886l-1.765,6.507H151.7a1.636,1.636,0,0,0-1.875,1.489L144.7,57.831Z" transform="translate(-118.286 -19.285)" fill="#fff"/>
        <path id="Path_4" data-name="Path 4" d="M187.761,18.161,189.967,10h7.555l-2.206,8.161ZM179.6,48.546l7.279-27.131h7.5L187.1,48.546Z" transform="translate(-137.304 -10)" fill="#fff"/>
        <path id="Path_5" data-name="Path 5" d="M202.3,50.385l7.114-26.469h8.051l-5.239,19.356h11.415c1.82,0,3.2-1.158,3.8-3.474l4.026-15.11c.607-2.316-.11-3.474-1.985-3.474H210.02l1.93-7.114h20.955c6.4,0,8.658,3.2,7.059,9.264l-4.687,17.7c-1.6,6.066-5.625,9.264-12.021,9.264H202.3Z" transform="translate(-147.487 -11.839)" fill="#fff"/>
        <path id="Path_6" data-name="Path 6" d="M269.4,57.831c-3.86,0-4.632-1.654-3.695-5.294l4.412-16.543c.993-3.64,2.647-5.294,6.507-5.294H295.1c3.97,0,4.687,1.654,3.75,5.294l-4.411,16.543c-.993,3.64-2.592,5.294-6.562,5.294Zm21.231-19.19c.331-1.158.055-1.489-1.268-1.489H278.72c-1.1,0-1.489.331-1.82,1.489L273.923,49.67c-.276,1.048-.11,1.434.993,1.434h10.643c1.323,0,1.765-.386,2.04-1.434Z" transform="translate(-175.766 -19.285)" fill="#fff"/>
        <path id="Path_7" data-name="Path 7" d="M327.3,51.686c-3.86,0-4.632-1.654-3.695-5.294L331.492,17h7.5l-2.04,7.555h6.562l-1.6,5.9h-6.562l-3.695,13.9c-.331,1.158-.055,1.434.993,1.434h4.908l-1.6,5.9Z" transform="translate(-201.738 -13.14)" fill="#fff"/>
      </g>
      <g id="Group_4" data-name="Group 4" transform="translate(231.745 162.381)">
        <g id="Group_3" data-name="Group 3" transform="translate(0)" clip-path="url(#clip-path)">
          <path id="Path_8" data-name="Path 8" d="M351.862,73.2a1.35,1.35,0,0,1,1.323,1.82,2.593,2.593,0,0,1-2.316,1.82,1.35,1.35,0,0,1-1.324-1.82,2.593,2.593,0,0,1,2.316-1.82m-.882,3.254a2,2,0,0,0,1.765-1.434,1.064,1.064,0,0,0-.993-1.434,1.925,1.925,0,0,0-1.765,1.434,1.042,1.042,0,0,0,.993,1.434m.276-1.268h-.276l-.221.827h-.386l.551-1.985h.772c.5,0,.717.165.607.551a.837.837,0,0,1-.662.551l.276.882h-.441Zm.165-.276c.221,0,.441-.055.5-.276s-.165-.276-.331-.276h-.331l-.165.551Z" transform="translate(-349.491 -73.2)" fill="#fff"/>
        </g>
      </g>
    </g>
    <text id="COACH" transform="translate(1125 546)" fill="#fff" font-size="18" font-family="AzoSans-LightItalic, Azo Sans" font-weight="300" font-style="italic"><tspan x="0" y="0">COACH</tspan></text>
  </g>
</svg>
