<svg xmlns="http://www.w3.org/2000/svg" xmlns:xlink="http://www.w3.org/1999/xlink" width="50" height="50" viewBox="0 0 50 50">
  <g id="Group_1871" data-name="Group 1871" transform="translate(0 0)">
        <path id="Path_1" data-name="Path 1" d="M46.8,13.387a9.379,9.379,0,0,1-10.643,5.9,7.858,7.858,0,0,1-1.93-.607l-2.04,1.93a6.877,6.877,0,0,1,.5,4.356,7.007,7.007,0,0,1-8.327,5.459,5.43,5.43,0,0,1-1.875-.662l-1.82,1.709a5.154,5.154,0,1,1-3.419-2.426,9.5,9.5,0,0,1,1.158.386l1.544-1.985A7.005,7.005,0,0,1,27.229,16.7a7.346,7.346,0,0,1,1.048.276l1.709-2.151a9.6,9.6,0,0,1-1.1-6.562,9.19,9.19,0,0,1,5.073-6.507,24.792,24.792,0,1,0,15.11,28.013A25.1,25.1,0,0,0,46.8,13.387Z" transform="translate(0.028 0.028)" fill="#e40b14"/>
  </g>
</svg>
