<svg xmlns="http://www.w3.org/2000/svg" viewBox="0 0 28.188 28.187">
  <defs>
    <style>
      .twitter-logo-cls-1 {
        fill: #c3c6cc;
      }
    </style>
  </defs>
  <g id="Group_1560" data-name="Group 1560" transform="translate(-1747.679 -1418.813)">
    <path id="Subtraction_2" data-name="Subtraction 2" class="twitter-logo-cls-1" d="M-11304.905,12003.187a14,14,0,0,1-9.967-4.128,14,14,0,0,1-4.129-9.964,14,14,0,0,1,4.129-9.967,14,14,0,0,1,9.967-4.128,14,14,0,0,1,9.964,4.128,14,14,0,0,1,4.128,9.967,14,14,0,0,1-4.128,9.964A14,14,0,0,1-11304.905,12003.187Zm-7.048-9.646h0a8.38,8.38,0,0,0,4.428,1.276,7.886,7.886,0,0,0,6.116-2.682,8.515,8.515,0,0,0,2.12-5.555v-.373a6.081,6.081,0,0,0,1.431-1.477,6.067,6.067,0,0,1-1.651.464,2.9,2.9,0,0,0,1.277-1.608,5.746,5.746,0,0,1-1.828.705,2.948,2.948,0,0,0-2.136-.925,2.89,2.89,0,0,0-2.886,2.886,3.494,3.494,0,0,0,.066.66,8.126,8.126,0,0,1-5.944-3.019,2.9,2.9,0,0,0-.4,1.455,2.855,2.855,0,0,0,1.277,2.4,3.128,3.128,0,0,1-1.3-.353v.045a2.891,2.891,0,0,0,2.313,2.838,2.921,2.921,0,0,1-.771.111,4.018,4.018,0,0,1-.551-.045,2.9,2.9,0,0,0,2.711,2,5.878,5.878,0,0,1-3.591,1.235,6.261,6.261,0,0,1-.643-.041Z" transform="translate(13066.679 -10556.187)"/>
  </g>
</svg>
