<svg xmlns="http://www.w3.org/2000/svg" width="22.671" height="22.406" viewBox="0 0 22.671 22.406">
  <g id="user-run" transform="translate(-0.594)">
    <circle id="Ellipse_276" data-name="Ellipse 276" cx="2" cy="2" r="2" transform="translate(16 1)" fill="none" stroke="#70868d" stroke-linecap="square" stroke-miterlimit="10" stroke-width="2"/>
    <path id="Path_613" data-name="Path 613" d="M12.5,5.5,8.53,10.2a2,2,0,0,0,.494,3.011l2.182,1.31a1,1,0,0,1,.38,1.3L9,21" fill="none" stroke="#70868d" stroke-miterlimit="10" stroke-width="2"/>
    <path id="Path_614" data-name="Path 614" d="M5,7,6.6,4.6a1,1,0,0,1,1.1-.41L12.5,5.5l4,3,2.1,3.775a1,1,0,0,0,1.19.463L22,12" fill="none" stroke="#70868d" stroke-linecap="square" stroke-miterlimit="10" stroke-width="2"/>
    <line id="Line_751" data-name="Line 751" x1="3.206" y2="3.735" transform="translate(13.294 8.5)" fill="none" stroke="#70868d" stroke-miterlimit="10" stroke-width="2"/>
    <line id="Line_752" data-name="Line 752" x1="4" y2="5" transform="translate(2 16)" fill="none" stroke="#70868d" stroke-linecap="square" stroke-miterlimit="10" stroke-width="2"/>
  </g>
</svg>
