<svg xmlns="http://www.w3.org/2000/svg" width="25.143" height="22" viewBox="0 0 25.143 22">
  <g id="player-48" transform="translate(0 -2)">
    <path id="Path_645" data-name="Path 645" d="M22,2H3.143A3.146,3.146,0,0,0,0,5.143V20.857A3.146,3.146,0,0,0,3.143,24H22a3.146,3.146,0,0,0,3.143-3.143V5.143A3.146,3.146,0,0,0,22,2Zm0,18.071a.786.786,0,0,1-.786.786H3.929a.786.786,0,0,1-.786-.786V5.929a.786.786,0,0,1,.786-.786H21.214A.786.786,0,0,1,22,5.929Z" fill="#c4ced5"/>
    <path id="Path_646" data-name="Path 646" d="M17.936,14.275l-4.714-3.143A.786.786,0,0,0,12,11.786v6.286a.786.786,0,0,0,1.222.654l4.714-3.143a.786.786,0,0,0,0-1.307Z" transform="translate(-2.571 -1.929)" fill="#c4ced5"/>
  </g>
</svg>
