<svg id="ic_directions_bike_48px" xmlns="http://www.w3.org/2000/svg" width="19.693" height="16.821" viewBox="0 0 19.693 16.821">
  <path id="Path_121" data-name="Path 121" d="M12.718,6.282a1.641,1.641,0,1,0-1.641-1.641A1.646,1.646,0,0,0,12.718,6.282ZM4.1,11.616a4.1,4.1,0,1,0,4.1,4.1A4.115,4.115,0,0,0,4.1,11.616Zm0,6.974a2.872,2.872,0,1,1,2.872-2.872A2.854,2.854,0,0,1,4.1,18.59Zm4.759-8.164L10.79,8.457l.615.615a5.622,5.622,0,0,0,4.144,1.682V9.113a4.144,4.144,0,0,1-2.995-1.19l-1.6-1.559a1.539,1.539,0,0,0-2.256,0L6.441,8.621a1.645,1.645,0,0,0-.492,1.149,1.827,1.827,0,0,0,.492,1.19l2.585,2.3v4.1h1.641V12.231Zm6.728,1.19a4.1,4.1,0,1,0,4.1,4.1A4.115,4.115,0,0,0,15.59,11.616Zm0,6.974a2.872,2.872,0,1,1,2.872-2.872A2.854,2.854,0,0,1,15.59,18.59Z" transform="translate(0 -3)" fill="#d9dede"/>
</svg>
