<svg xmlns="http://www.w3.org/2000/svg" viewBox="0 0 65.123 65.124">
  <defs>
    <style>
      .bike-cls-1 {
        fill: #ea7e2e;
      }

      .bike-cls-2 {
        fill: #ba6424;
        stroke: #ba6424;
        stroke-width: 3px;
      }

      .bike-cls-3 {
        fill: #fff;
      }
    </style>
  </defs>
  <g id="Group_763" data-name="Group 763" transform="translate(0)">
    <rect id="Rectangle_457" data-name="Rectangle 457" class="bike-cls-1" width="65.124" height="65.124" rx="32.562" transform="translate(0 0)"/>
    <g id="cyclist" transform="translate(13.961 14.04)">
      <path id="Path_279" data-name="Path 279" class="bike-cls-2" d="M8.2,36a7.2,7.2,0,1,0,7.2,7.2A7.2,7.2,0,0,0,8.2,36Zm0,13.2a6,6,0,1,1,6-6,6,6,0,0,1-6,6Z" transform="translate(-1 -16.156)"/>
      <path id="Path_280" data-name="Path 280" class="bike-cls-2" d="M46.2,36a7.2,7.2,0,1,0,7.2,7.2A7.2,7.2,0,0,0,46.2,36Zm0,13.2a6,6,0,1,1,6-6,6,6,0,0,1-6,6Z" transform="translate(-16.199 -16.156)"/>
      <ellipse id="Ellipse_163" data-name="Ellipse 163" class="bike-cls-3" cx="3.3" cy="3.3" rx="3.3" ry="3.3" transform="translate(23.24 0)"/>
      <path id="Path_281" data-name="Path 281" class="bike-cls-3" d="M34.767,22.73a1.258,1.258,0,0,0,1.029.389l5.389-.492a.986.986,0,0,0,.9-.983h0a.986.986,0,0,0-.986-.986H36.4l-3.774-4.718A2.516,2.516,0,0,0,30.8,15a2.482,2.482,0,0,0-1.919.733l-7.965,7.963a2.516,2.516,0,0,0-.6,2.605,2.6,2.6,0,0,0,1.091,1.337l4.95,3.152v9.02a.982.982,0,0,0,1.961.08l.807-9.859a1.258,1.258,0,0,0-.343-.971l-3.549-3.733,5.995-6.334Z" transform="translate(-9.175 -8.831)"/>
    </g>
  </g>
</svg>
