<svg xmlns="http://www.w3.org/2000/svg" width="32.09" height="33.513" viewBox="0 0 32.09 33.513">
  <g id="a-check" transform="translate(-0.5 0.5)">
    <path id="Path_1116" data-name="Path 1116" d="M14.811,13a31.659,31.659,0,0,0-9.928,1.7A4.257,4.257,0,0,0,2,18.739v5.648H13.387" transform="translate(0 5.081)" fill="none" stroke="#fff" stroke-miterlimit="10" stroke-width="3"/>
    <path id="Path_1117" data-name="Path 1117" d="M13.117,18.081h0C9.187,18.081,6,13.471,6,9.541V8.117A7.118,7.118,0,0,1,13.117,1h0a7.118,7.118,0,0,1,7.117,7.117V9.541C20.234,13.471,17.047,18.081,13.117,18.081Z" transform="translate(1.694)" fill="none" stroke="#fff" stroke-linecap="square" stroke-miterlimit="10" stroke-width="3"/>
    <path id="Path_1118" data-name="Path 1118" d="M15,21.27l2.847,2.847L24.964,17" transform="translate(5.505 6.775)" fill="none" stroke="#fff" stroke-linecap="square" stroke-miterlimit="10" stroke-width="3"/>
  </g>
</svg>
