<svg xmlns="http://www.w3.org/2000/svg" viewBox="0 0 32 32" width="32" height="32"><title>cycling track</title><g class="nc-icon-wrapper" stroke-linecap="square" stroke-linejoin="miter" stroke-width="2" fill="#75838d" stroke="#75838d"><circle cx="6.5" cy="22.5" r="5.5" fill="none" stroke-miterlimit="10" data-color="color-2"/> <circle cx="25.5" cy="22.5" r="5.5" fill="none" stroke-miterlimit="10" data-color="color-2"/> <path d="M24.206,3.116A2.5,2.5,0,1,1,22.736,7.9c-1.32-.406-4.044-3.86-4.044-3.86S22.886,2.71,24.206,3.116Z" fill="none" stroke="#75838d" stroke-miterlimit="10"/> <path d="M16,24V18.414a1,1,0,0,0-.293-.707l-2.745-2.745a2,2,0,0,1,.52-3.2l4.772-2.386a1,1,0,0,1,1.247.295L21.7,12.6a1,1,0,0,0,.8.4H26" fill="none" stroke="#75838d" stroke-miterlimit="10"/></g></svg>