<svg xmlns="http://www.w3.org/2000/svg" viewBox="0 0 28.193 26.623">
  <defs>
    <style>
      .data-file-checked-cls-1, .data-file-checked-cls-4 {
        fill: #71dd51;
      }

      .data-file-checked-cls-2 {
        fill: #fff;
      }

      .data-file-checked-cls-3, .data-file-checked-cls-4 {
        stroke: none;
      }
    </style>
  </defs>
  <g id="Group_461" data-name="Group 461" transform="translate(-1535.759 -173.127)">
    <g id="chart-bar" transform="translate(1535.759 175.804)">
      <path id="Path_231" data-name="Path 231" class="data-file-checked-cls-1" d="M21.953,0H2A1,1,0,0,0,1,1V22.948a1,1,0,0,0,1,1H21.953a1,1,0,0,0,1-1V1A1,1,0,0,0,21.953,0ZM8.982,16.962h-2V12.971h2Zm3.991,0h-2V6.984h2Zm3.991,0h-2V9.978h2Z" transform="translate(-1)"/>
    </g>
    <g id="check-bold" transform="translate(1549.764 175.75)">
      <g id="Path_123" data-name="Path 123" class="data-file-checked-cls-2" transform="translate(-2 -4)">
        <path class="data-file-checked-cls-3" d="M 5.927504062652588 13.98337745666504 L 5.223634243011475 13.17895698547363 L 1.247424006462097 8.634716987609863 L 0.6313640475273132 7.930647373199463 L 1.292894005775452 7.26911735534668 L 2.428954124450684 6.133047103881836 L 2.981044054031372 5.580947399139404 L 3.650563955307007 5.982657432556152 L 5.92324161529541 7.346271514892578 L 11.63637447357178 3.191257238388062 L 12.32743358612061 2.688667297363281 L 12.93165397644043 3.292887210845947 L 14.06771373748779 4.428946971893311 L 14.77481365203857 5.136057376861572 L 14.06771373748779 5.843167304992676 L 6.683323860168457 13.22756767272949 L 5.927504062652588 13.98337745666504 Z"/>
        <path class="data-file-checked-cls-4" d="M 12.22454452514648 3.999997138977051 L 5.976214408874512 8.544246673583984 L 3.136063575744629 6.840147018432617 L 2.000003814697266 7.976217269897461 L 5.976214408874512 12.52045726776123 L 13.36060428619385 5.136056900024414 L 12.22454452514648 3.999997138977051 M 12.43032455444336 1.377346992492676 L 13.63875389099121 2.585786819458008 L 14.77481365203857 3.721847534179688 L 16.18903350830078 5.136056900024414 L 14.77481365203857 6.550267219543457 L 7.390424251556396 13.93466758728027 L 5.878793716430664 15.44630718231201 L 4.471063613891602 13.83746719360352 L 0.4948539733886719 9.293227195739746 L -0.7372751235961914 7.885077476501465 L 0.5857839584350586 6.562006950378418 L 1.721843719482422 5.425937652587891 L 2.826033592224121 4.321746826171875 L 4.165063858032227 5.125166893005371 L 5.870271682739258 6.148297309875488 L 11.04819393157959 2.382527351379395 L 12.43032455444336 1.377346992492676 Z"/>
      </g>
    </g>
  </g>
</svg>
