<svg xmlns="http://www.w3.org/2000/svg" width="21.902" height="21.902" viewBox="0 0 21.902 21.902">
  <g id="Group_1580" data-name="Group 1580" transform="translate(-843.902 -886.098)">
    <g id="Group_1579" data-name="Group 1579" transform="translate(122 495.098)">
      <circle id="Ellipse_50" data-name="Ellipse 50" cx="10.951" cy="10.951" r="10.951" transform="translate(721.902 391)" fill="#ebebeb"/>
    </g>
    <g id="edit-72" transform="translate(849 891)">
      <path id="Path_247" data-name="Path 247" d="M6.841,6,2.093,10.748A.282.282,0,0,0,2,10.966v2.172a.293.293,0,0,0,.31.31H4.483a.282.282,0,0,0,.217-.093L9.448,8.607Z" transform="translate(0 -3.448)" fill="#a4acb2"/>
      <path id="Path_248" data-name="Path 248" d="M22.631,3.266,20.459,1.093a.3.3,0,0,0-.434,0L19,2.117l2.607,2.607L22.631,3.7A.3.3,0,0,0,22.631,3.266Z" transform="translate(-11.724)" fill="#a4acb2"/>
    </g>
  </g>
</svg>
