<svg xmlns="http://www.w3.org/2000/svg" viewBox="0 0 24.004 23.767">
  <defs>
    <style>
      .fingerprint-cls-1 {
        fill: none;
        stroke: #cdced0;
        stroke-miterlimit: 10;
      }
    </style>
  </defs>
  <g id="touch-id" transform="translate(-1.48 -1.501)">
    <path id="Path_160" data-name="Path 160" class="fingerprint-cls-1" d="M3.947,11.764A11.452,11.452,0,0,0,2.229,20.43" transform="translate(0 -4.657)"/>
    <path id="Path_161" data-name="Path 161" class="fingerprint-cls-1" d="M22.019,3.273A11.493,11.493,0,0,0,8.912,5.14" transform="translate(-3.301 0)"/>
    <path id="Path_162" data-name="Path 162" class="fingerprint-cls-1" d="M41.944,13.639A11.44,11.44,0,0,0,38,7.052" transform="translate(-17.194 -2.407)"/>
    <path id="Path_163" data-name="Path 163" class="fingerprint-cls-1" d="M45.789,22.161a11.54,11.54,0,0,0-.227-2.5" transform="translate(-20.806 -8.428)"/>
    <path id="Path_164" data-name="Path 164" class="fingerprint-cls-1" d="M2.45,28.352q.05.247.11.49" transform="translate(-0.215 -12.58)"/>
    <path id="Path_165" data-name="Path 165" class="fingerprint-cls-1" d="M18.317,35.106a12.912,12.912,0,0,0,2.969-11.1" transform="translate(-7.793 -10.504)"/>
    <path id="Path_166" data-name="Path 166" class="fingerprint-cls-1" d="M19.051,32.849A16.043,16.043,0,0,0,21.5,20.8a2.793,2.793,0,0,0-3.387-2.254,2.836,2.836,0,0,0-2.243,3.389,10.075,10.075,0,0,1-3,9.343" transform="translate(-5.195 -7.865)"/>
    <path id="Path_167" data-name="Path 167" class="fingerprint-cls-1" d="M11.066,28a7.2,7.2,0,0,1-2.624,6.036" transform="translate(-3.077 -12.412)"/>
    <path id="Path_168" data-name="Path 168" class="fingerprint-cls-1" d="M24.7,19.792a18.859,18.859,0,0,0-.309-2.177h0a5.749,5.749,0,0,0-11.358.591" transform="translate(-5.272 -5.248)"/>
    <path id="Path_169" data-name="Path 169" class="fingerprint-cls-1" d="M31.884,38.07A18.615,18.615,0,0,0,33.737,31" transform="translate(-14.273 -13.845)"/>
    <path id="Path_170" data-name="Path 170" class="fingerprint-cls-1" d="M12.324,8.3a8.619,8.619,0,0,0-5.817,9.911h0a4.316,4.316,0,0,1-1.444,4.15" transform="translate(-1.465 -3.001)"/>
    <path id="Path_171" data-name="Path 171" class="fingerprint-cls-1" d="M32.151,24.218a21.458,21.458,0,0,0,.295-9.8h0A8.62,8.62,0,0,0,24,7.507" transform="translate(-10.507 -2.624)"/>
  </g>
</svg>
