<svg id="heartbeat" xmlns="http://www.w3.org/2000/svg" viewBox="0 0 26.221 25.4">
  <defs>
    <style>
      .heartrate-cls-1 {
        fill: #e3e3e4;
      }
    </style>
  </defs>
  <path id="Path_252" data-name="Path 252" class="heartrate-cls-1" d="M17.276,15.458l-1.393,2.786a.787.787,0,0,1-.737.492h0a.73.73,0,0,1-.655-.41L11.131,13l-.983,1.966a.787.787,0,0,1-.737.492H2.2c3.359,5.9,10.406,11.8,10.816,12.127a.6.6,0,0,0,.492.164A.878.878,0,0,0,14,27.585c.41-.328,7.374-6.227,10.816-12.127H17.276Z" transform="translate(-0.397 -2.348)"/>
  <path id="Path_253" data-name="Path 253" class="heartrate-cls-1" d="M8.521,11.471,9.914,8.685a1.274,1.274,0,0,1,.655-.492.86.86,0,0,1,.737.41l3.359,5.326.983-1.966a.942.942,0,0,1,.737-.492h8.849A9.918,9.918,0,0,0,26.22,7.62,7.588,7.588,0,0,0,18.682,0,7.292,7.292,0,0,0,13.11,2.54,7.292,7.292,0,0,0,7.538,0,7.588,7.588,0,0,0,0,7.62a8.662,8.662,0,0,0,.983,3.851Z"/>
</svg>
