<svg id="c-question" xmlns="http://www.w3.org/2000/svg" width="18" height="18" viewBox="0 0 18 18">
  <path id="Path_693" data-name="Path 693" d="M9,0a9,9,0,1,0,9,9A9.01,9.01,0,0,0,9,0ZM8.625,14.25A1.125,1.125,0,1,1,9.75,13.125,1.125,1.125,0,0,1,8.625,14.25ZM11.858,7.6a4.942,4.942,0,0,1-1.321,1.252C9.486,9.624,9.514,9.8,9.514,10.5H7.672a2.612,2.612,0,0,1,.285-1.486A3.723,3.723,0,0,1,9,7.964c.607-.434,1.2-.851,1.2-1.579,0-.682-.583-.925-1.265-.925a5.35,5.35,0,0,0-2.378.682L5.794,4.62c1.618-.907,4.171-1.317,5.566-.181A2.491,2.491,0,0,1,11.858,7.6Z" fill="#d1d4db"/>
</svg>
