<svg id="logo-linkedin" xmlns="http://www.w3.org/2000/svg" viewBox="0 0 24 24">
  <defs>
    <style>
      .linkedin-profile-cls-1 {
        fill: #eff0f0;
      }
    </style>
  </defs>
  <path id="Path_377" data-name="Path 377" class="linkedin-profile-cls-1" d="M23,0H1A.945.945,0,0,0,0,1V23a.945.945,0,0,0,1,1H23a.945.945,0,0,0,1-1V1A.945.945,0,0,0,23,0ZM7.1,20.5H3.6V9H7.2V20.5ZM5.3,7.4A2.1,2.1,0,1,1,7.4,5.3,2.051,2.051,0,0,1,5.3,7.4ZM20.5,20.5H16.9V14.9c0-1.3,0-3-1.8-3-1.9,0-2.1,1.4-2.1,2.9v5.7H9.4V9h3.4v1.6h0a3.717,3.717,0,0,1,3.4-1.8c3.6,0,4.3,2.4,4.3,5.5Z"/>
</svg>
