<svg xmlns="http://www.w3.org/2000/svg" xmlns:xlink="http://www.w3.org/1999/xlink" viewBox="0 0 113.639 28.394">
  <defs>
    <style>
      .logo-gray-cls-1 {
        fill: #c3c6cc;
      }

      .logo-gray-cls-2 {
        clip-path: url(#clip-path);
      }
    </style>
    <clipPath id="clip-path">
      <rect id="Rectangle_3" data-name="Rectangle 3" class="logo-gray-cls-1" width="2.146" height="2.083"/>
    </clipPath>
  </defs>
  <g id="Group_55" data-name="Group 55" transform="translate(-39 -122)">
    <g id="Group_1" data-name="Group 1" transform="translate(39 122)">
      <path id="Path_1" data-name="Path 1" class="logo-gray-cls-1" d="M26.779,7.651a5.368,5.368,0,0,1-6.092,3.377,4.5,4.5,0,0,1-1.1-.347l-1.168,1.1a3.937,3.937,0,0,1,.284,2.494A4.011,4.011,0,0,1,13.932,17.4a3.108,3.108,0,0,1-1.073-.379L11.817,18A2.95,2.95,0,1,1,9.86,16.615a5.44,5.44,0,0,1,.663.221l.884-1.136a4.01,4.01,0,0,1,4.166-6.155,4.2,4.2,0,0,1,.6.158l.978-1.231a5.494,5.494,0,0,1-.631-3.756,5.261,5.261,0,0,1,2.9-3.725,14.191,14.191,0,1,0,8.649,16.035A14.365,14.365,0,0,0,26.779,7.651Z" transform="translate(0.028 0.028)"/>
    </g>
    <g id="Group_2" data-name="Group 2" transform="translate(71.488 125.165)">
      <path id="Path_2" data-name="Path 2" class="logo-gray-cls-1" d="M108.14,34.869h-4.672l4.451-16.7H102.9L104,14.1h14.772l-1.1,4.072h-5.05Z" transform="translate(-102.9 -12.806)"/>
      <path id="Path_3" data-name="Path 3" class="logo-gray-cls-1" d="M137.2,46.23l4.166-15.53h4.166l-.442,1.673a3.5,3.5,0,0,1,3.125-1.673h4.514l-1.01,3.725H145.5a.937.937,0,0,0-1.073.852L141.493,46.23Z" transform="translate(-126.373 -24.166)"/>
      <path id="Path_4" data-name="Path 4" class="logo-gray-cls-1" d="M184.271,14.671,185.534,10h4.324L188.6,14.671ZM179.6,32.063l4.166-15.53h4.293l-4.166,15.53Z" transform="translate(-155.39 -10)"/>
      <path id="Path_5" data-name="Path 5" class="logo-gray-cls-1" d="M202.3,34.869l4.072-15.151h4.608l-3,11.079h6.534c1.042,0,1.831-.663,2.178-1.989L219,20.16c.347-1.326-.063-1.989-1.136-1.989H206.719l1.1-4.072h11.994c3.661,0,4.956,1.831,4.04,5.3l-2.683,10.132a6.513,6.513,0,0,1-6.881,5.3H202.3Z" transform="translate(-170.925 -12.806)"/>
      <path id="Path_6" data-name="Path 6" class="logo-gray-cls-1" d="M267.667,46.23c-2.21,0-2.651-.947-2.115-3.03l2.525-9.469c.568-2.083,1.515-3.03,3.725-3.03h10.574c2.273,0,2.683.947,2.146,3.03L282,43.2c-.568,2.083-1.484,3.03-3.756,3.03Zm12.152-10.984c.189-.663.032-.852-.726-.852H273c-.631,0-.852.189-1.042.852l-1.7,6.313c-.158.6-.063.821.568.821h6.092c.758,0,1.01-.221,1.168-.821Z" transform="translate(-214.071 -24.166)"/>
      <path id="Path_7" data-name="Path 7" class="logo-gray-cls-1" d="M325.567,36.854c-2.21,0-2.651-.947-2.115-3.03L327.966,17h4.293l-1.168,4.324h3.756l-.915,3.377h-3.756l-2.115,7.954c-.189.663-.032.821.568.821h2.809l-.915,3.377Z" transform="translate(-253.695 -14.791)"/>
    </g>
    <g id="Group_4" data-name="Group 4" transform="translate(149.326 145.114)">
      <g id="Group_3" data-name="Group 3" class="logo-gray-cls-2" transform="translate(0)">
        <path id="Path_8" data-name="Path 8" class="logo-gray-cls-1" d="M350.843,73.2a.773.773,0,0,1,.758,1.042,1.484,1.484,0,0,1-1.326,1.042.773.773,0,0,1-.758-1.042,1.484,1.484,0,0,1,1.326-1.042m-.5,1.862a1.143,1.143,0,0,0,1.01-.821.609.609,0,0,0-.568-.821,1.1,1.1,0,0,0-1.01.821.6.6,0,0,0,.568.821m.158-.726h-.158l-.126.473h-.221l.316-1.136h.442c.284,0,.41.095.347.316a.479.479,0,0,1-.379.316l.158.505h-.253Zm.095-.158c.126,0,.253-.032.284-.158s-.095-.158-.189-.158H350.5l-.095.316Z" transform="translate(-349.486 -73.2)"/>
      </g>
    </g>
  </g>
</svg>
