<svg version="1.1" xmlns="http://www.w3.org/2000/svg" xmlns:xlink="http://www.w3.org/1999/xlink" x="0px" y="0px" viewBox="0 0 32 32" xml:space="preserve" width="32" height="32"><title>watch time</title><g class="nc-icon-wrapper" stroke-linecap="square" stroke-linejoin="miter" stroke-width="2" fill="#75838d" stroke="#75838d"><polyline data-cap="butt" data-color="color-2" fill="none" stroke-miterlimit="10" points="9,6 10,1 22,1 23,6 " stroke-linecap="butt"/> <polyline data-cap="butt" data-color="color-2" fill="none" stroke-miterlimit="10" points="23,26 22,31 10,31 9,26 " stroke-linecap="butt"/> <path fill="none" stroke="#75838d" stroke-miterlimit="10" d="M23,26H9 c-1.657,0-3-1.343-3-3V9c0-1.657,1.343-3,3-3h14c1.657,0,3,1.343,3,3v14C26,24.657,24.657,26,23,26z"/> <polyline fill="none" stroke="#75838d" stroke-miterlimit="10" points="26,14 28,14 28,18 26,18 "/> <polyline data-color="color-2" fill="none" stroke-miterlimit="10" points=" 16,11 16,16 21,16 "/></g></svg>