<svg version="1.1" xmlns="http://www.w3.org/2000/svg" xmlns:xlink="http://www.w3.org/1999/xlink" x="0px" y="0px" viewBox="0 0 32 32" xml:space="preserve" width="32" height="32"><title>bell 53</title><g class="nc-icon-wrapper" stroke-linecap="square" stroke-linejoin="miter" stroke-width="2" fill="#75838d" stroke="#75838d"><path data-cap="butt" data-color="color-2" fill="none" stroke-miterlimit="10" d="M13,27c0,1.657,1.343,3,3,3 s3-1.343,3-3" stroke-linecap="butt"/> <path data-color="color-2" data-stroke="none" d="M13,27c0,1.657,1.343,3,3,3s3-1.343,3-3H13z" stroke-linejoin="miter" stroke-linecap="square" stroke="none"/> <path fill="none" stroke="#75838d" stroke-miterlimit="10" d="M25,17c0-3.235,0-6,0-6 c0-4.92-4.08-9-9-9s-9,4.08-9,9c0,0,0,2.765,0,6c0,5.091-4,10-4,10h26C29,27,25,22.091,25,17z"/></g></svg>