<svg xmlns="http://www.w3.org/2000/svg" viewBox="0 0 58.909 54">
  <defs>
    <style>
      .play-class-1 {
        fill: #d4d7d9;
      }
    </style>
  </defs>
  <path id="Path_235" data-name="Path 235" class="play-class-1" d="M49.091,1H9.818A9.828,9.828,0,0,0,0,10.818V45.182A9.828,9.828,0,0,0,9.818,55H49.091a9.828,9.828,0,0,0,9.818-9.818V10.818A9.828,9.828,0,0,0,49.091,1ZM38.082,30.1,25.81,37.467a2.454,2.454,0,0,1-3.719-2.1V20.636a2.454,2.454,0,0,1,3.719-2.1L38.082,25.9a2.454,2.454,0,0,1,0,4.207Z" transform="translate(0 -1)"/>
</svg>
