<svg xmlns="http://www.w3.org/2000/svg" width="13.418" height="13.418" viewBox="0 0 13.418 13.418">
  <g id="reload" transform="translate(0)">
    <path id="Path_878" data-name="Path 878" d="M6.65,0A6.71,6.71,0,0,0,.5,4.026l2.049.894a4.473,4.473,0,0,1,4.1-2.684A4.412,4.412,0,0,1,9.774,3.547L7.629,5.672l5.731.634V0l-1.98,1.959A6.639,6.639,0,0,0,6.65,0Z" transform="translate(0.059 0)" fill="#fff"/>
    <path id="Path_879" data-name="Path 879" d="M6.709,10.43A4.412,4.412,0,0,1,3.585,9.12L5.731,7,0,6.361v6.306l1.98-1.959a6.639,6.639,0,0,0,4.729,1.959A6.71,6.71,0,0,0,12.86,8.64l-2.049-.894a4.473,4.473,0,0,1-4.1,2.684Z" transform="translate(0 0.752)" fill="#fff"/>
  </g>
</svg>
