<svg xmlns="http://www.w3.org/2000/svg" width="16.269" height="16.821" viewBox="0 0 16.269 16.821">
<defs>
    <style>
      .run-icon {
        fill: #7bd777;
        
      }
    </style>
  </defs>
  <g id="user-run" transform="translate(-0.592)">
    <circle id="Ellipse_341" data-name="Ellipse 341" cx="2.252" cy="2.252" r="2.252" transform="translate(11.408)" class="run-icon"/>
    <path id="Path_824" data-name="Path 824" d="M5.2,15.334a2.956,2.956,0,0,1-.557-.68l-4.05,4.86,1.153.961,3.964-4.756C5.458,15.537,5.274,15.4,5.2,15.334Z" transform="translate(0 -3.654)" class="run-icon"/>
    <path id="Path_825" data-name="Path 825" d="M17.388,9.056l-2.4.8-2.327-3.78a1.487,1.487,0,0,0-.254-.321,1.722,1.722,0,0,0-.664-.339L7.381,4.034a.751.751,0,0,0-.85.3L4.613,7.211l1.249.833L7.468,5.636l2.357.742L7.08,9.429a1.495,1.495,0,0,0,.112,2.121c.269.237,3.3,2.315,3.3,2.315L8.126,16.23l1.061,1.061,3-3a.751.751,0,0,0-.1-1.149l-2.6-1.9L12.224,8.2l1.8,2.944a.751.751,0,0,0,.641.359.765.765,0,0,0,.237-.038l2.964-.989Z" transform="translate(-1.003 -0.997)" class="run-icon"/>
  </g>
</svg>
