<svg id="pin-4" xmlns="http://www.w3.org/2000/svg" width="24" height="23.563" viewBox="0 0 24 23.563">
  <path id="Path_701" data-name="Path 701" d="M23,1H1V18H8.667L12,22l3.333-4H23Z" fill="none" stroke="#e4e6e6" stroke-miterlimit="10" stroke-width="2"/>
  <path id="Path_702" data-name="Path 702" d="M12.992,9.737,15.2,11.4A2,2,0,0,1,16,13v1H8V13a2,2,0,0,1,.8-1.6l2.208-1.663" fill="none" stroke="#e4e6e6" stroke-miterlimit="10" stroke-width="2"/>
  <path id="Path_703" data-name="Path 703" d="M12,10h0a2,2,0,0,1-2-2V7a2,2,0,0,1,2-2h0a2,2,0,0,1,2,2V8A2,2,0,0,1,12,10Z" fill="none" stroke="#e4e6e6" stroke-linecap="square" stroke-miterlimit="10" stroke-width="2"/>
</svg>
