<svg xmlns="http://www.w3.org/2000/svg" viewBox="0 0 65.123 65.124">
  <defs>
    <style>
      .swim-cls-1 {
        fill: #5fb1dd;
      }

      .swim-cls-2 {
        fill: #fff;
      }

      .swim-cls-3 {
        fill: #437e9d;
        stroke: #437e9d;
        stroke-width: 2px;
      }
    </style>
  </defs>
  <g id="Group_762" data-name="Group 762" transform="translate(-0.001 0)">
    <rect id="Rectangle_456" data-name="Rectangle 456" class="swim-cls-1" width="65.124" height="65.124" rx="32.562" transform="translate(0 0)"/>
    <g id="user-swim" transform="translate(13.137 14.859)">
      <path id="Path_273" data-name="Path 273" class="swim-cls-2" d="M42.532,20a4.532,4.532,0,1,0,4.532,4.532A4.538,4.538,0,0,0,42.532,20Z" transform="translate(-14.69 -12.23)"/>
      <path id="Path_274" data-name="Path 274" class="swim-cls-2" d="M26.353,11.5a1.943,1.943,0,0,0-2.331-3.108l-7.77,5.827a1.943,1.943,0,0,0-.419,2.679l4.731,6.665L9,31.957H31.662L20.1,16.189Z" transform="translate(-4.468 -8)"/>
      <path id="Path_275" data-name="Path 275" class="swim-cls-3" d="M35.022,53.475a5.89,5.89,0,0,1-4.532-2.232,5.718,5.718,0,0,1-9.065,0,5.89,5.89,0,0,1-4.532,2.232,5.89,5.89,0,0,1-4.532-2.232,5.89,5.89,0,0,1-4.532,2.232A5.834,5.834,0,0,1,2,47.647a.647.647,0,1,1,1.295,0A4.538,4.538,0,0,0,7.827,52.18a4.681,4.681,0,0,0,3.974-2.4.672.672,0,0,1,1.118,0,4.681,4.681,0,0,0,3.973,2.4,4.681,4.681,0,0,0,3.973-2.4.672.672,0,0,1,1.118,0,4.491,4.491,0,0,0,7.947,0,.672.672,0,0,1,1.118,0,4.681,4.681,0,0,0,3.974,2.4,4.538,4.538,0,0,0,4.532-4.532.647.647,0,1,1,1.295,0A5.834,5.834,0,0,1,35.022,53.475Z" transform="translate(-2 -21.748)"/>
    </g>
  </g>
</svg>
