<svg xmlns="http://www.w3.org/2000/svg" width="20.2" height="16.18" viewBox="0 0 20.2 16.18">z
  <g id="Group_2582" data-name="Group 2582" transform="translate(-690.137 -213.945)">
    <path id="Path_23" data-name="Path 23" d="M40.24,20a2.24,2.24,0,1,0,2.24,2.24A2.243,2.243,0,0,0,40.24,20Z" transform="translate(664.157 197.785)" fill="#d4d9d9"/>
    <path id="Path_24" data-name="Path 24" d="M17.576,9.728a.96.96,0,0,0-1.152-1.536l-3.84,2.88a.96.96,0,0,0-.207,1.324l2.338,3.294L9,19.84H20.2l-5.716-7.793Z" transform="translate(683.877 205.945)" fill="#d4d9d9"/>
    <path id="Path_25" data-name="Path 25" d="M18.32,50.2a2.911,2.911,0,0,1-2.24-1.1,2.826,2.826,0,0,1-4.48,0,2.826,2.826,0,0,1-4.48,0A2.862,2.862,0,0,1,2,47.32a.32.32,0,0,1,.64,0,2.243,2.243,0,0,0,2.24,2.24,2.313,2.313,0,0,0,1.964-1.185.332.332,0,0,1,.553,0A2.313,2.313,0,0,0,9.36,49.56a2.313,2.313,0,0,0,1.964-1.185.332.332,0,0,1,.553,0,2.219,2.219,0,0,0,3.928,0,.332.332,0,0,1,.553,0A2.313,2.313,0,0,0,18.32,49.56a2.243,2.243,0,0,0,2.24-2.24.32.32,0,0,1,.64,0A2.883,2.883,0,0,1,18.32,50.2Z" transform="translate(688.637 179.425)" fill="#d4d9d9" stroke="#d4d9d9" stroke-width="1"/>
  </g>
</svg>
