<svg xmlns="http://www.w3.org/2000/svg" viewBox="0 0 32 32" width="32" height="32"><title>user run</title><g class="nc-icon-wrapper" stroke-linecap="square" stroke-linejoin="miter" stroke-width="2" fill="#75838d" stroke="#75838d"><circle cx="25" cy="5" r="3" fill="none" stroke="#75838d" stroke-miterlimit="10"/> <path data-cap="butt" d="M18,8l-6.182,6.955a2,2,0,0,0,.682,3.156L17.88,20.5a1,1,0,0,1,.408,1.5L14,28" fill="none" stroke="#75838d" stroke-miterlimit="10" stroke-linecap="butt"/> <path d="M8,10,9.641,6.717A1,1,0,0,1,10.778,6.2L18,8l5,4,2.553,5.106a1,1,0,0,0,1.341.447L30,16" fill="none" stroke="#75838d" stroke-miterlimit="10"/> <line data-cap="butt" x1="23" y1="12" x2="19" y2="17" fill="none" stroke="#75838d" stroke-miterlimit="10" stroke-linecap="butt"/> <line x1="10" y1="21" x2="3" y2="29" fill="none" stroke="#75838d" stroke-miterlimit="10"/></g></svg>