<svg xmlns="http://www.w3.org/2000/svg" xmlns:xlink="http://www.w3.org/1999/xlink" width="161.07" height="138.923" viewBox="0 0 161.07 138.923">
  <defs>
    <linearGradient id="linear-gradient" x1="0.17" y1="1.116" x2="0.947" y2="0.789" gradientUnits="objectBoundingBox">
      <stop offset="0" stop-color="#e276ed"/>
      <stop offset="0.284" stop-color="#e074ec"/>
      <stop offset="0.642" stop-color="#ce73e6"/>
      <stop offset="0.833" stop-color="#af6be8"/>
      <stop offset="1" stop-color="#8b52e9"/>
    </linearGradient>
  </defs>
  <g id="Group_3061" data-name="Group 3061" transform="translate(-405.609 -2009.441)">
    <g id="Group_3040" data-name="Group 3040" transform="translate(405.609 2009.441)">
      <path id="Path_1054" data-name="Path 1054" d="M6332.009-3746.077a4.9,4.9,0,0,1-3.475-1.439,4.914,4.914,0,0,1,0-6.95,70.479,70.479,0,0,0,15.155-22.477,70.253,70.253,0,0,0,5.555-27.521,70.257,70.257,0,0,0-5.555-27.521,70.493,70.493,0,0,0-15.155-22.477,70.478,70.478,0,0,0-22.477-15.155,70.264,70.264,0,0,0-27.521-5.555,70.262,70.262,0,0,0-27.521,5.555,70.489,70.489,0,0,0-22.477,15.155,70.487,70.487,0,0,0-15.155,22.477,70.256,70.256,0,0,0-5.554,27.521,70.253,70.253,0,0,0,5.554,27.521,70.473,70.473,0,0,0,15.155,22.477,4.914,4.914,0,0,1,0,6.95,4.914,4.914,0,0,1-6.949,0,80.269,80.269,0,0,1-17.258-25.6,80.042,80.042,0,0,1-6.331-31.35,80.035,80.035,0,0,1,6.331-31.349,80.271,80.271,0,0,1,17.258-25.6,80.265,80.265,0,0,1,25.6-17.257,80.044,80.044,0,0,1,31.35-6.331,80.04,80.04,0,0,1,31.35,6.331,80.273,80.273,0,0,1,25.6,17.257,80.261,80.261,0,0,1,17.257,25.6,80.027,80.027,0,0,1,6.331,31.349,80.034,80.034,0,0,1-6.331,31.35,80.259,80.259,0,0,1-17.257,25.6A4.9,4.9,0,0,1,6332.009-3746.077Z" transform="translate(-6198 3885)" fill="#e0e0df"/>
    </g>
    <g id="Group_3041" data-name="Group 3041" transform="translate(405.609 2009.441)">
      <path id="Path_1055" data-name="Path 1055" d="M6225.063-3746.077a4.9,4.9,0,0,1-3.475-1.439,81.1,81.1,0,0,1-9.832-11.916,80.585,80.585,0,0,1-7.426-13.682,80.235,80.235,0,0,1-4.695-15.125,81.115,81.115,0,0,1-1.636-16.226,81.126,81.126,0,0,1,1.636-16.226,80.226,80.226,0,0,1,4.695-15.124,80.548,80.548,0,0,1,7.426-13.682,81.083,81.083,0,0,1,9.832-11.916,81.107,81.107,0,0,1,11.916-9.831,80.546,80.546,0,0,1,13.682-7.426,80.175,80.175,0,0,1,15.125-4.695,81.087,81.087,0,0,1,16.226-1.636,81.083,81.083,0,0,1,16.226,1.636,80.159,80.159,0,0,1,15.124,4.695,80.555,80.555,0,0,1,13.683,7.426,81.1,81.1,0,0,1,11.915,9.831,81.049,81.049,0,0,1,9.831,11.916,80.48,80.48,0,0,1,7.426,13.682,80.156,80.156,0,0,1,4.7,15.124,81.126,81.126,0,0,1,1.636,16.226,4.914,4.914,0,0,1-4.914,4.914,4.914,4.914,0,0,1-4.914-4.914,71.266,71.266,0,0,0-1.437-14.255,70.306,70.306,0,0,0-4.118-13.266,70.706,70.706,0,0,0-6.518-12.009,71.241,71.241,0,0,0-8.637-10.468,71.248,71.248,0,0,0-10.468-8.637,70.756,70.756,0,0,0-12.009-6.518,70.337,70.337,0,0,0-13.266-4.118,71.267,71.267,0,0,0-14.255-1.437,71.263,71.263,0,0,0-14.255,1.437,70.342,70.342,0,0,0-13.266,4.118,70.719,70.719,0,0,0-12.009,6.518,71.248,71.248,0,0,0-10.468,8.637,71.21,71.21,0,0,0-8.637,10.468,70.743,70.743,0,0,0-6.519,12.009,70.269,70.269,0,0,0-4.118,13.266,71.266,71.266,0,0,0-1.437,14.255,71.276,71.276,0,0,0,1.437,14.256,70.26,70.26,0,0,0,4.118,13.265,70.71,70.71,0,0,0,6.519,12.009,71.21,71.21,0,0,0,8.637,10.468,4.914,4.914,0,0,1,0,6.95A4.9,4.9,0,0,1,6225.063-3746.077Z" transform="translate(-6198 3885)" fill="url(#linear-gradient)"/>
    </g>
  </g>
</svg>
