<svg xmlns="http://www.w3.org/2000/svg" xmlns:xlink="http://www.w3.org/1999/xlink" width="161.072" height="138.924" viewBox="0 0 161.072 138.924">
  <defs>
    <linearGradient id="linear-gradient" x1="0.835" y1="0.952" x2="0.757" y2="0.047" gradientUnits="objectBoundingBox">
      <stop offset="0" stop-color="#5be791"/>
      <stop offset="1" stop-color="#9ede54"/>
    </linearGradient>
  </defs>
  <g id="Group_3043" data-name="Group 3043" transform="translate(19746.088 -13195.504)">
    <g id="Group_3034" data-name="Group 3034" transform="translate(-19746.088 13195.504)">
      <path id="Path_1048" data-name="Path 1048" d="M1985.008-5989.077a4.9,4.9,0,0,1-3.475-1.439,4.914,4.914,0,0,1,0-6.949,70.488,70.488,0,0,0,15.155-22.477,70.263,70.263,0,0,0,5.555-27.521,70.255,70.255,0,0,0-5.555-27.521,70.471,70.471,0,0,0-15.155-22.478,70.469,70.469,0,0,0-22.477-15.155,70.263,70.263,0,0,0-27.521-5.555,70.261,70.261,0,0,0-27.521,5.555,70.473,70.473,0,0,0-22.477,15.155,70.479,70.479,0,0,0-15.155,22.478,70.259,70.259,0,0,0-5.554,27.521,70.267,70.267,0,0,0,5.554,27.521,70.5,70.5,0,0,0,15.155,22.477,4.913,4.913,0,0,1,0,6.949,4.914,4.914,0,0,1-6.949,0,80.258,80.258,0,0,1-17.257-25.6,80.034,80.034,0,0,1-6.331-31.35,80.037,80.037,0,0,1,6.331-31.35,80.258,80.258,0,0,1,17.257-25.6,80.251,80.251,0,0,1,25.6-17.258,80.048,80.048,0,0,1,31.35-6.331,80.049,80.049,0,0,1,31.35,6.331,80.253,80.253,0,0,1,25.6,17.258,80.259,80.259,0,0,1,17.258,25.6,80.037,80.037,0,0,1,6.331,31.35,80.034,80.034,0,0,1-6.331,31.35,80.259,80.259,0,0,1-17.258,25.6A4.9,4.9,0,0,1,1985.008-5989.077Z" transform="translate(-1851 6128)" fill="#e0e0df"/>
    </g>
    <g id="Group_3035" data-name="Group 3035" transform="translate(-19746.088 13223.023)">
      <path id="Path_1049" data-name="Path 1049" d="M1878.063-5764.592a4.9,4.9,0,0,1-3.475-1.439c-1.815-1.815-3.563-3.739-5.2-5.717s-3.2-4.069-4.635-6.2-2.8-4.374-4.034-6.641c-1.24-2.282-2.381-4.651-3.392-7.042-1.021-2.412-1.932-4.9-2.709-7.4-.786-2.527-1.454-5.125-1.985-7.721a80.686,80.686,0,0,1-1.22-8,81.744,81.744,0,0,1-.416-8.229,81.729,81.729,0,0,1,.416-8.229,80.686,80.686,0,0,1,1.22-8c.531-2.6,1.2-5.194,1.985-7.722.778-2.5,1.689-4.99,2.709-7.4,1.011-2.391,2.152-4.76,3.392-7.042,1.231-2.266,2.588-4.5,4.034-6.641s3-4.215,4.635-6.2a4.914,4.914,0,0,1,6.918-.662,4.914,4.914,0,0,1,.662,6.918c-1.438,1.742-2.808,3.574-4.072,5.444s-2.461,3.841-3.542,5.83-2.09,4.083-2.977,6.18c-.895,2.116-1.694,4.3-2.376,6.493-.689,2.217-1.276,4.5-1.741,6.773a70.793,70.793,0,0,0-1.072,7.02,71.877,71.877,0,0,0-.365,7.235,71.867,71.867,0,0,0,.365,7.235,70.793,70.793,0,0,0,1.072,7.02c.466,2.277,1.052,4.556,1.741,6.773.682,2.193,1.481,4.377,2.376,6.493.887,2.1,1.889,4.176,2.977,6.179s2.272,3.95,3.542,5.83,2.633,3.7,4.072,5.444,2.971,3.429,4.565,5.023a4.914,4.914,0,0,1,0,6.95A4.9,4.9,0,0,1,1878.063-5764.592Z" transform="translate(-1851 5875.996)" fill="url(#linear-gradient)"/>
    </g>
  </g>
</svg>
