<svg xmlns="http://www.w3.org/2000/svg" xmlns:xlink="http://www.w3.org/1999/xlink" width="163.242" height="140.794" viewBox="0 0 163.242 140.794">
  <defs>
    <linearGradient id="linear-gradient" y1="0.5" x2="1" y2="0.5" gradientUnits="objectBoundingBox">
      <stop offset="0" stop-color="#f88af7"/>
      <stop offset="1" stop-color="#ff96ff"/>
    </linearGradient>
  </defs>
  <g id="Group_3068" data-name="Group 3068" transform="translate(19976.301 -13509.108)">
    <path id="Path_1056" data-name="Path 1056" d="M-5998.187,4658.794a4.965,4.965,0,0,1-3.521-1.458,4.98,4.98,0,0,1,0-7.043,71.43,71.43,0,0,0,15.359-22.78,71.2,71.2,0,0,0,5.629-27.892,71.2,71.2,0,0,0-5.629-27.891,71.437,71.437,0,0,0-15.359-22.78,71.434,71.434,0,0,0-22.78-15.359,71.194,71.194,0,0,0-27.892-5.629,71.2,71.2,0,0,0-27.892,5.629,71.434,71.434,0,0,0-22.78,15.359,71.421,71.421,0,0,0-15.359,22.78,71.2,71.2,0,0,0-5.629,27.891,71.2,71.2,0,0,0,5.629,27.892,71.414,71.414,0,0,0,15.359,22.78,4.981,4.981,0,0,1,0,7.043,4.981,4.981,0,0,1-7.043,0,81.338,81.338,0,0,1-17.49-25.943,81.107,81.107,0,0,1-6.417-31.772,81.108,81.108,0,0,1,6.417-31.771,81.325,81.325,0,0,1,17.49-25.942,81.334,81.334,0,0,1,25.942-17.49,81.119,81.119,0,0,1,31.772-6.417,81.117,81.117,0,0,1,31.772,6.417,81.345,81.345,0,0,1,25.942,17.49,81.334,81.334,0,0,1,17.49,25.942,81.116,81.116,0,0,1,6.416,31.771,81.115,81.115,0,0,1-6.416,31.772,81.347,81.347,0,0,1-17.49,25.943A4.964,4.964,0,0,1-5998.187,4658.794Z" transform="translate(-13842.301 8991.108)" fill="#8453d2"/>
    <path id="Path_1057" data-name="Path 1057" d="M-6001.4,5618.983a4.965,4.965,0,0,1-3.521-1.459c-.919-.919-1.829-1.873-2.7-2.833s-1.737-1.958-2.564-2.96-1.644-2.041-2.423-3.083-1.546-2.12-2.275-3.2a4.981,4.981,0,0,1,1.338-6.915,4.98,4.98,0,0,1,6.915,1.339c.64.948,1.312,1.894,2,2.81s1.4,1.827,2.128,2.708,1.484,1.755,2.252,2.6,1.566,1.682,2.375,2.49a4.982,4.982,0,0,1,0,7.044A4.969,4.969,0,0,1-6001.4,5618.983Z" transform="translate(-13947.475 8030.919)" fill="url(#linear-gradient)"/>
  </g>
</svg>
