<svg xmlns="http://www.w3.org/2000/svg" xmlns:xlink="http://www.w3.org/1999/xlink" width="163.24" height="140.794" viewBox="0 0 163.24 140.794">
  <defs>
    <linearGradient id="linear-gradient" y1="0.5" x2="1" y2="0.5" gradientUnits="objectBoundingBox">
      <stop offset="0" stop-color="#f88af7"/>
      <stop offset="1" stop-color="#ff96ff"/>
    </linearGradient>
  </defs>
  <g id="Group_3082" data-name="Group 3082" transform="translate(19984.656 -13904.207)">
    <path id="Path_1103" data-name="Path 1103" d="M-6073.687,8228.794a4.964,4.964,0,0,1-3.521-1.458,4.981,4.981,0,0,1,0-7.044,71.421,71.421,0,0,0,15.359-22.78,71.2,71.2,0,0,0,5.629-27.891,71.2,71.2,0,0,0-5.629-27.892,71.414,71.414,0,0,0-15.359-22.78,71.422,71.422,0,0,0-22.779-15.36,71.211,71.211,0,0,0-27.893-5.629,71.21,71.21,0,0,0-27.892,5.629,71.437,71.437,0,0,0-22.78,15.36,71.419,71.419,0,0,0-15.358,22.78,71.2,71.2,0,0,0-5.63,27.892,71.19,71.19,0,0,0,5.63,27.891,71.426,71.426,0,0,0,15.358,22.78,4.98,4.98,0,0,1,0,7.044,4.98,4.98,0,0,1-7.042,0,81.36,81.36,0,0,1-17.49-25.942,81.112,81.112,0,0,1-6.416-31.772,81.1,81.1,0,0,1,6.416-31.772,81.344,81.344,0,0,1,17.49-25.942,81.345,81.345,0,0,1,25.942-17.49A81.126,81.126,0,0,1-6127.88,8088a81.129,81.129,0,0,1,31.772,6.417,81.352,81.352,0,0,1,25.942,17.49,81.35,81.35,0,0,1,17.489,25.943,81.1,81.1,0,0,1,6.417,31.772,81.1,81.1,0,0,1-6.417,31.772,81.358,81.358,0,0,1-17.489,25.942A4.968,4.968,0,0,1-6073.687,8228.794Z" transform="translate(-13775.156 5816.207)" fill="#8453d2"/>
    <path id="Path_1104" data-name="Path 1104" d="M-6182.072,8228.794a4.967,4.967,0,0,1-3.522-1.458c-.919-.921-1.829-1.874-2.7-2.835s-1.737-1.957-2.564-2.96-1.644-2.041-2.423-3.083-1.545-2.119-2.274-3.2-1.446-2.2-2.124-3.312-1.341-2.269-1.965-3.418-1.233-2.34-1.8-3.521-1.122-2.4-1.634-3.616-1.008-2.467-1.462-3.709-.889-2.525-1.284-3.795-.767-2.58-1.1-3.874-.642-2.633-.912-3.952-.513-2.679-.718-4.02-.381-2.724-.52-4.084-.246-2.765-.315-4.144-.105-2.8-.105-4.2.035-2.808.105-4.2.176-2.773.315-4.143.313-2.735.52-4.085.446-2.693.718-4.021.577-2.646.912-3.95.7-2.6,1.1-3.875.827-2.545,1.284-3.793.947-2.49,1.462-3.708,1.063-2.43,1.634-3.617,1.176-2.365,1.8-3.52,1.287-2.3,1.965-3.418,1.393-2.229,2.124-3.312,1.494-2.155,2.274-3.2,1.594-2.08,2.423-3.083,1.689-2,2.564-2.96,1.783-1.914,2.7-2.833,1.872-1.828,2.833-2.7,1.958-1.738,2.962-2.565,2.04-1.644,3.082-2.423,2.121-1.545,3.2-2.274,2.2-1.445,3.312-2.123,2.268-1.341,3.418-1.966,2.339-1.233,3.52-1.8,2.4-1.122,3.617-1.635,2.467-1.007,3.708-1.462,2.524-.889,3.794-1.284,2.578-.767,3.875-1.1,2.631-.643,3.951-.913,2.679-.513,4.02-.718,2.722-.38,4.084-.519,2.767-.246,4.144-.316,2.8-.106,4.2-.106,2.808.037,4.2.106,2.771.176,4.142.316,2.738.313,4.085.519,2.693.446,4.02.718,2.647.577,3.951.913,2.6.7,3.875,1.1,2.547.827,3.794,1.284,2.489.946,3.708,1.462,2.43,1.063,3.616,1.635,2.365,1.175,3.521,1.8,2.3,1.286,3.418,1.966,2.229,1.392,3.311,2.123,2.155,1.494,3.2,2.274,2.079,1.6,3.082,2.423,2,1.69,2.962,2.565,1.914,1.783,2.833,2.7,1.829,1.874,2.7,2.834,1.737,1.958,2.564,2.96,1.644,2.041,2.423,3.083,1.545,2.119,2.274,3.2,1.446,2.2,2.123,3.312,1.34,2.268,1.965,3.417,1.233,2.339,1.8,3.521,1.122,2.4,1.635,3.617a4.981,4.981,0,0,1-2.646,6.527,4.982,4.982,0,0,1-6.528-2.646c-.45-1.065-.933-2.132-1.434-3.174s-1.032-2.076-1.583-3.088-1.129-2.02-1.726-3-1.222-1.958-1.864-2.908-1.312-1.894-2-2.81-1.4-1.826-2.128-2.708-1.484-1.756-2.252-2.6-1.566-1.683-2.375-2.49-1.645-1.606-2.489-2.374-1.722-1.527-2.6-2.253-1.793-1.445-2.708-2.129-1.863-1.358-2.811-2-1.929-1.27-2.907-1.864-1.992-1.177-3-1.726-2.053-1.083-3.089-1.582-2.109-.985-3.174-1.436-2.164-.883-3.252-1.283-2.214-.778-3.328-1.125-2.261-.673-3.4-.965-2.309-.564-3.465-.8-2.352-.45-3.528-.63-2.39-.334-3.587-.456-2.431-.216-3.641-.277-2.464-.093-3.692-.093-2.47.031-3.691.093-2.436.154-3.642.277-2.4.275-3.586.456-2.364.392-3.528.63-2.322.506-3.465.8-2.28.617-3.4.964-2.234.726-3.328,1.126-2.184.831-3.253,1.283-2.132.934-3.173,1.436-2.076,1.031-3.089,1.582-2.019,1.129-3,1.726-1.958,1.222-2.909,1.864-1.893,1.312-2.81,2-1.826,1.4-2.708,2.128-1.755,1.485-2.6,2.254-1.683,1.565-2.491,2.374-1.606,1.646-2.374,2.489-1.526,1.721-2.253,2.6-1.443,1.793-2.128,2.708-1.358,1.862-2,2.811-1.27,1.928-1.864,2.907-1.176,1.991-1.726,3-1.082,2.052-1.582,3.088-.984,2.109-1.434,3.174-.883,2.163-1.283,3.252-.779,2.214-1.126,3.328-.673,2.263-.965,3.4-.563,2.309-.8,3.465-.45,2.352-.631,3.529-.334,2.391-.455,3.586-.216,2.429-.278,3.641-.093,2.464-.093,3.692.032,2.47.093,3.691.155,2.438.278,3.641.274,2.4.455,3.586.392,2.364.631,3.528.505,2.322.8,3.466.617,2.278.965,3.4.726,2.233,1.126,3.327.831,2.186,1.283,3.253.933,2.132,1.434,3.175,1.032,2.075,1.582,3.088,1.13,2.02,1.727,3,1.222,1.956,1.863,2.906,1.313,1.894,2,2.811,1.4,1.826,2.128,2.707,1.485,1.757,2.253,2.6,1.565,1.682,2.375,2.489a4.981,4.981,0,0,1,0,7.044A4.965,4.965,0,0,1-6182.072,8228.794Z" transform="translate(-13775.156 5816.207)" fill="url(#linear-gradient)"/>
  </g>
</svg>
