<svg xmlns="http://www.w3.org/2000/svg" xmlns:xlink="http://www.w3.org/1999/xlink" width="163.24" height="140.794" viewBox="0 0 163.24 140.794">
  <defs>
    <linearGradient id="linear-gradient" y1="0.5" x2="1" y2="0.5" gradientUnits="objectBoundingBox">
      <stop offset="0" stop-color="#f88af7"/>
      <stop offset="1" stop-color="#ff96ff"/>
    </linearGradient>
  </defs>
  <g id="Group_3069" data-name="Group 3069" transform="translate(19743.281 -13509.108)">
    <path id="Path_1060" data-name="Path 1060" d="M-3892.687,4658.794a4.967,4.967,0,0,1-3.522-1.458,4.981,4.981,0,0,1,0-7.043,71.418,71.418,0,0,0,15.359-22.78,71.2,71.2,0,0,0,5.629-27.892,71.2,71.2,0,0,0-5.629-27.891,71.425,71.425,0,0,0-15.359-22.78,71.43,71.43,0,0,0-22.78-15.359,71.2,71.2,0,0,0-27.892-5.629,71.2,71.2,0,0,0-27.892,5.629,71.432,71.432,0,0,0-22.779,15.359,71.422,71.422,0,0,0-15.36,22.78,71.2,71.2,0,0,0-5.629,27.891,71.2,71.2,0,0,0,5.629,27.892,71.414,71.414,0,0,0,15.36,22.78,4.981,4.981,0,0,1,0,7.043,4.981,4.981,0,0,1-7.044,0,81.344,81.344,0,0,1-17.489-25.943,81.111,81.111,0,0,1-6.417-31.772,81.112,81.112,0,0,1,6.417-31.771,81.332,81.332,0,0,1,17.489-25.942,81.347,81.347,0,0,1,25.943-17.49A81.115,81.115,0,0,1-3946.88,4518a81.116,81.116,0,0,1,31.772,6.417,81.334,81.334,0,0,1,25.942,17.49,81.325,81.325,0,0,1,17.49,25.942,81.112,81.112,0,0,1,6.417,31.771,81.111,81.111,0,0,1-6.417,31.772,81.338,81.338,0,0,1-17.49,25.943A4.964,4.964,0,0,1-3892.687,4658.794Z" transform="translate(-15714.781 8991.108)" fill="#8453d2"/>
    <path id="Path_1061" data-name="Path 1061" d="M-3963.713,5486.4a4.963,4.963,0,0,1-3.521-1.459c-.92-.919-1.828-1.873-2.7-2.833s-1.737-1.958-2.564-2.96-1.643-2.041-2.422-3.083-1.546-2.12-2.275-3.2-1.445-2.2-2.123-3.312-1.34-2.268-1.965-3.418-1.233-2.339-1.8-3.52-1.122-2.4-1.635-3.617-1.008-2.466-1.462-3.708a4.98,4.98,0,0,1,2.964-6.389,4.981,4.981,0,0,1,6.389,2.964c.4,1.09.83,2.184,1.283,3.253s.932,2.131,1.435,3.173,1.032,2.076,1.582,3.089,1.129,2.019,1.725,3,1.222,1.958,1.864,2.908,1.313,1.893,2,2.81,1.4,1.826,2.128,2.708,1.485,1.756,2.253,2.6,1.566,1.682,2.374,2.49a4.979,4.979,0,0,1,0,7.042A4.963,4.963,0,0,1-3963.713,5486.4Z" transform="translate(-15752.141 8163.504)" fill="url(#linear-gradient)"/>
  </g>
</svg>
