<svg xmlns="http://www.w3.org/2000/svg" xmlns:xlink="http://www.w3.org/1999/xlink" width="163.24" height="140.794" viewBox="0 0 163.24 140.794">
  <defs>
    <linearGradient id="linear-gradient" y1="0.5" x2="1" y2="0.5" gradientUnits="objectBoundingBox">
      <stop offset="0" stop-color="#f88af7"/>
      <stop offset="1" stop-color="#ff96ff"/>
    </linearGradient>
  </defs>
  <g id="Group_3081" data-name="Group 3081" transform="translate(19982.221 -13741.188)">
    <path id="Path_1078" data-name="Path 1078" d="M-6051.687,6755.794a4.966,4.966,0,0,1-3.521-1.459,4.979,4.979,0,0,1,0-7.043,71.456,71.456,0,0,0,15.359-22.78,71.221,71.221,0,0,0,5.628-27.892,71.227,71.227,0,0,0-5.628-27.892,71.46,71.46,0,0,0-15.359-22.779,71.44,71.44,0,0,0-22.78-15.359,71.21,71.21,0,0,0-27.892-5.629,71.209,71.209,0,0,0-27.893,5.629,71.451,71.451,0,0,0-22.78,15.359,71.442,71.442,0,0,0-15.359,22.779,71.21,71.21,0,0,0-5.629,27.892,71.2,71.2,0,0,0,5.629,27.892,71.439,71.439,0,0,0,15.359,22.78,4.979,4.979,0,0,1,0,7.043,4.98,4.98,0,0,1-7.042,0,81.33,81.33,0,0,1-17.49-25.942,81.106,81.106,0,0,1-6.416-31.772,81.1,81.1,0,0,1,6.416-31.771,81.32,81.32,0,0,1,17.49-25.942,81.345,81.345,0,0,1,25.942-17.49,81.1,81.1,0,0,1,31.772-6.417,81.1,81.1,0,0,1,31.771,6.417,81.358,81.358,0,0,1,25.942,17.489,81.325,81.325,0,0,1,17.489,25.943,81.1,81.1,0,0,1,6.417,31.771,81.107,81.107,0,0,1-6.417,31.772,81.321,81.321,0,0,1-17.489,25.942A4.967,4.967,0,0,1-6051.687,6755.794Z" transform="translate(-13794.721 7126.188)" fill="#8453d2"/>
    <path id="Path_1079" data-name="Path 1079" d="M-6160.073,6830.118a4.964,4.964,0,0,1-3.521-1.459c-.919-.919-1.829-1.873-2.7-2.833s-1.737-1.958-2.564-2.96-1.644-2.04-2.423-3.082-1.545-2.121-2.274-3.2-1.446-2.2-2.124-3.312-1.34-2.268-1.965-3.418-1.233-2.338-1.8-3.521-1.122-2.4-1.635-3.617-1.008-2.466-1.462-3.708-.89-2.525-1.285-3.794-.767-2.581-1.1-3.875-.643-2.632-.912-3.95-.513-2.68-.718-4.02-.38-2.725-.519-4.085-.246-2.764-.316-4.143-.105-2.8-.105-4.2.035-2.807.105-4.2.176-2.773.316-4.143.312-2.735.519-4.085.446-2.693.718-4.02.577-2.647.912-3.95.7-2.6,1.1-3.875.827-2.546,1.285-3.794.946-2.49,1.462-3.708,1.063-2.43,1.635-3.617,1.175-2.366,1.8-3.52,1.287-2.3,1.965-3.418,1.393-2.23,2.124-3.312,1.5-2.156,2.274-3.2,1.6-2.079,2.423-3.083,1.69-2,2.565-2.96,1.782-1.914,2.7-2.833,1.873-1.829,2.834-2.7,1.958-1.737,2.961-2.564,2.04-1.644,3.082-2.422,2.121-1.547,3.2-2.275,2.2-1.445,3.312-2.123,2.268-1.34,3.417-1.965a4.981,4.981,0,0,1,6.754,2,4.98,4.98,0,0,1-2,6.753c-1.01.548-2.019,1.128-3,1.725s-1.958,1.222-2.909,1.865-1.893,1.312-2.81,2-1.826,1.4-2.708,2.128-1.755,1.485-2.6,2.253-1.683,1.567-2.491,2.374-1.606,1.646-2.373,2.49-1.527,1.72-2.254,2.6-1.443,1.792-2.128,2.708-1.358,1.862-2,2.81-1.27,1.929-1.864,2.908-1.177,1.991-1.727,3-1.082,2.052-1.582,3.088-.984,2.109-1.435,3.174-.883,2.163-1.283,3.253-.779,2.214-1.126,3.327-.673,2.264-.965,3.4-.563,2.308-.8,3.465-.451,2.352-.631,3.528-.334,2.392-.455,3.586-.215,2.429-.277,3.641-.093,2.463-.093,3.691.031,2.47.093,3.692.154,2.438.277,3.641.274,2.4.455,3.586.393,2.364.631,3.528.505,2.322.8,3.465.617,2.279.965,3.4.726,2.233,1.126,3.328.831,2.184,1.283,3.253.933,2.132,1.435,3.173,1.033,2.076,1.582,3.089,1.13,2.019,1.727,3,1.222,1.958,1.864,2.908,1.313,1.893,2,2.81,1.4,1.826,2.128,2.708,1.485,1.755,2.253,2.6,1.565,1.682,2.375,2.49a4.981,4.981,0,0,1,0,7.043A4.966,4.966,0,0,1-6160.073,6830.118Z" transform="translate(-13794.721 7051.863)" fill="url(#linear-gradient)"/>
  </g>
</svg>
