<svg xmlns="http://www.w3.org/2000/svg" xmlns:xlink="http://www.w3.org/1999/xlink" width="163.24" height="140.794" viewBox="0 0 163.24 140.794">
  <defs>
    <linearGradient id="linear-gradient" y1="0.5" x2="1" y2="0.5" gradientUnits="objectBoundingBox">
      <stop offset="0" stop-color="#f88af7"/>
      <stop offset="1" stop-color="#ff96ff"/>
    </linearGradient>
  </defs>
  <g id="Group_3074" data-name="Group 3074" transform="translate(18558.76 -13509.108)">
    <path id="Path_1075" data-name="Path 1075" d="M6810.313,4658.794a4.98,4.98,0,0,1-3.521-8.5,71.7,71.7,0,1,0-101.343,0,4.98,4.98,0,0,1-7.042,7.043,81.663,81.663,0,1,1,115.429,0A4.968,4.968,0,0,1,6810.313,4658.794Z" transform="translate(-25233.26 8991.108)" fill="#8453d2"/>
    <path id="Path_1076" data-name="Path 1076" d="M6701.928,4799.425a4.961,4.961,0,0,1-3.521-1.459c-.92-.92-1.829-1.873-2.7-2.833s-1.738-1.959-2.565-2.961-1.643-2.041-2.422-3.083-1.546-2.121-2.275-3.2-1.444-2.2-2.122-3.312-1.341-2.268-1.967-3.418-1.233-2.339-1.8-3.52-1.122-2.4-1.636-3.616-1.007-2.466-1.462-3.708-.889-2.524-1.283-3.794-.768-2.579-1.1-3.875-.643-2.633-.912-3.951-.514-2.679-.718-4.021-.381-2.722-.519-4.084-.246-2.767-.316-4.144-.105-2.8-.105-4.2.036-2.808.105-4.2.177-2.771.316-4.143.313-2.737.519-4.085.446-2.692.718-4.019.576-2.647.912-3.951.7-2.6,1.1-3.876.827-2.546,1.283-3.794.946-2.488,1.462-3.708,1.063-2.43,1.636-3.617,1.175-2.364,1.8-3.52,1.287-2.3,1.967-3.419,1.392-2.229,2.122-3.311,1.494-2.155,2.275-3.2,1.595-2.079,2.422-3.083,1.69-2,2.565-2.961,1.781-1.914,2.7-2.833,1.873-1.83,2.834-2.7,1.958-1.738,2.961-2.565a4.98,4.98,0,1,1,6.339,7.683c-.881.726-1.755,1.484-2.6,2.253s-1.682,1.566-2.49,2.375-1.606,1.646-2.373,2.489-1.528,1.721-2.253,2.6-1.444,1.793-2.129,2.708-1.358,1.863-2,2.81-1.27,1.929-1.864,2.908-1.176,1.991-1.726,3-1.083,2.053-1.581,3.089-.985,2.108-1.436,3.173-.883,2.163-1.282,3.252-.779,2.214-1.126,3.328-.673,2.262-.965,3.4-.563,2.31-.8,3.465-.45,2.352-.631,3.528-.334,2.39-.455,3.587-.217,2.43-.277,3.64-.093,2.463-.093,3.692.031,2.47.093,3.691.154,2.436.277,3.641.274,2.4.455,3.586.393,2.364.631,3.528.506,2.322.8,3.465.617,2.28.965,3.4.726,2.234,1.126,3.328.83,2.184,1.283,3.252.933,2.132,1.435,3.173,1.03,2.075,1.581,3.089,1.129,2.02,1.726,3,1.222,1.957,1.864,2.908,1.313,1.893,2,2.811,1.4,1.826,2.128,2.708,1.484,1.755,2.254,2.6,1.565,1.682,2.373,2.49a4.98,4.98,0,0,1-3.521,8.5Z" transform="translate(-25233.26 8850.477)" fill="url(#linear-gradient)"/>
  </g>
</svg>
