<svg xmlns="http://www.w3.org/2000/svg" xmlns:xlink="http://www.w3.org/1999/xlink" width="163.24" height="140.793" viewBox="0 0 163.24 140.793">
  <defs>
    <linearGradient id="linear-gradient" y1="0.5" x2="1" y2="0.5" gradientUnits="objectBoundingBox">
      <stop offset="0" stop-color="#f88af7"/>
      <stop offset="1" stop-color="#ff96ff"/>
    </linearGradient>
  </defs>
  <g id="Group_3075" data-name="Group 3075" transform="translate(18558.76 -13731.559)">
    <path id="Path_1093" data-name="Path 1093" d="M6810.313,6668.793a4.98,4.98,0,0,1-3.521-8.5,71.7,71.7,0,1,0-101.343,0,4.98,4.98,0,0,1-7.042,7.043,81.663,81.663,0,1,1,115.429,0A4.97,4.97,0,0,1,6810.313,6668.793Z" transform="translate(-25233.26 7203.559)" fill="#8453d2"/>
    <path id="Path_1094" data-name="Path 1094" d="M6701.928,6668.793a4.963,4.963,0,0,1-3.521-1.459c-.92-.919-1.829-1.873-2.7-2.833s-1.738-1.958-2.565-2.961-1.643-2.041-2.422-3.083-1.546-2.12-2.275-3.2-1.444-2.2-2.122-3.311-1.341-2.268-1.967-3.419-1.233-2.339-1.8-3.519-1.122-2.4-1.636-3.617-1.007-2.467-1.462-3.708-.889-2.524-1.283-3.794-.768-2.578-1.1-3.875-.643-2.633-.912-3.952-.514-2.679-.718-4.02-.381-2.722-.519-4.083-.246-2.767-.316-4.145-.105-2.8-.105-4.2.036-2.808.105-4.2.177-2.771.316-4.143.313-2.737.519-4.085.446-2.693.718-4.02.576-2.646.912-3.951.7-2.6,1.1-3.875.827-2.547,1.283-3.793.946-2.49,1.462-3.708,1.063-2.431,1.636-3.617,1.175-2.364,1.8-3.52,1.287-2.3,1.967-3.418,1.392-2.23,2.122-3.312,1.494-2.155,2.275-3.2,1.595-2.08,2.422-3.083,1.69-2,2.565-2.96,1.781-1.914,2.7-2.833,1.873-1.83,2.834-2.7,1.958-1.738,2.961-2.564,2.04-1.643,3.082-2.422,2.12-1.546,3.2-2.275,2.2-1.445,3.313-2.122,2.268-1.341,3.418-1.966,2.34-1.233,3.521-1.8,2.4-1.122,3.616-1.635,2.467-1.007,3.708-1.462,2.524-.889,3.795-1.284,2.578-.767,3.874-1.1,2.634-.642,3.951-.913,2.68-.512,4.021-.717,2.722-.381,4.084-.519,2.767-.245,4.144-.316,2.8-.105,4.2-.105,2.808.036,4.2.105,2.771.176,4.145.316,2.735.313,4.083.519,2.694.446,4.021.717,2.646.577,3.95.913,2.6.7,3.875,1.1,2.546.827,3.794,1.284,2.489.946,3.709,1.462,2.43,1.063,3.615,1.635,2.366,1.175,3.521,1.8,2.3,1.287,3.418,1.966,2.23,1.391,3.312,2.122,2.155,1.494,3.2,2.275,2.079,1.594,3.084,2.423,2,1.688,2.96,2.563,1.913,1.782,2.833,2.7,1.829,1.874,2.7,2.834,1.738,1.959,2.565,2.961,1.644,2.041,2.422,3.083a4.981,4.981,0,0,1-7.978,5.965c-.683-.916-1.4-1.826-2.127-2.708s-1.484-1.755-2.253-2.6-1.566-1.683-2.374-2.491-1.646-1.606-2.489-2.374-1.721-1.527-2.6-2.252-1.793-1.445-2.708-2.129-1.862-1.358-2.811-2-1.928-1.27-2.907-1.864-1.99-1.176-3-1.726-2.053-1.083-3.088-1.582-2.109-.985-3.175-1.435-2.163-.883-3.252-1.283-2.213-.779-3.327-1.125-2.263-.673-3.4-.966-2.31-.563-3.466-.8-2.351-.45-3.527-.63-2.391-.334-3.587-.456-2.431-.216-3.641-.277-2.464-.093-3.691-.093-2.47.031-3.692.093-2.435.154-3.641.277-2.4.275-3.586.456-2.364.392-3.528.63-2.322.506-3.465.8-2.281.618-3.4.965-2.234.725-3.328,1.126-2.184.831-3.252,1.283-2.132.934-3.173,1.435-2.076,1.031-3.09,1.582-2.02,1.129-3,1.726-1.958,1.222-2.909,1.864-1.893,1.313-2.81,2-1.826,1.4-2.707,2.128-1.756,1.484-2.6,2.253-1.682,1.565-2.49,2.374-1.606,1.646-2.373,2.49-1.528,1.721-2.253,2.6-1.444,1.793-2.129,2.708-1.358,1.862-2,2.81-1.27,1.929-1.864,2.908-1.176,1.99-1.726,3-1.083,2.053-1.581,3.089-.985,2.108-1.436,3.173-.883,2.164-1.282,3.252-.779,2.215-1.126,3.328-.673,2.262-.965,3.4-.563,2.31-.8,3.465-.45,2.352-.631,3.528-.334,2.391-.455,3.587-.217,2.431-.277,3.641-.093,2.464-.093,3.692.031,2.471.093,3.692.154,2.435.277,3.641.274,2.4.455,3.586.393,2.364.631,3.528.506,2.322.8,3.466.617,2.28.965,3.4.726,2.234,1.126,3.328.83,2.184,1.283,3.253.933,2.133,1.435,3.173,1.03,2.076,1.581,3.089,1.129,2.021,1.726,3,1.222,1.958,1.864,2.908,1.313,1.893,2,2.81,1.4,1.827,2.128,2.708,1.484,1.756,2.254,2.6,1.565,1.682,2.374,2.491a4.98,4.98,0,0,1-3.522,8.5Z" transform="translate(-25233.26 7203.559)" fill="url(#linear-gradient)"/>
  </g>
</svg>
