<svg xmlns="http://www.w3.org/2000/svg" xmlns:xlink="http://www.w3.org/1999/xlink" width="163.242" height="140.794" viewBox="0 0 163.242 140.794">
  <defs>
    <linearGradient id="linear-gradient" y1="0.5" x2="1" y2="0.5" gradientUnits="objectBoundingBox">
      <stop offset="0" stop-color="#f88af7"/>
      <stop offset="1" stop-color="#ff96ff"/>
    </linearGradient>
  </defs>
  <g id="Group_3073" data-name="Group 3073" transform="translate(18795.156 -13509.108)">
    <path id="Path_1072" data-name="Path 1072" d="M4674.313,4658.794a4.98,4.98,0,0,1-3.521-8.5,71.7,71.7,0,1,0-101.343,0,4.98,4.98,0,0,1-7.043,7.043,81.663,81.663,0,1,1,115.429,0A4.966,4.966,0,0,1,4674.313,4658.794Z" transform="translate(-23333.656 8991.108)" fill="#8453d2"/>
    <path id="Path_1073" data-name="Path 1073" d="M4565.928,4906.172a4.965,4.965,0,0,1-3.522-1.459c-.919-.919-1.829-1.873-2.7-2.833s-1.737-1.958-2.564-2.96-1.643-2.041-2.422-3.083-1.546-2.121-2.275-3.2-1.445-2.2-2.123-3.311-1.34-2.268-1.966-3.419-1.234-2.339-1.8-3.52-1.122-2.4-1.635-3.616-1.007-2.467-1.462-3.708-.889-2.524-1.284-3.795-.767-2.579-1.1-3.875-.643-2.633-.913-3.952-.513-2.679-.718-4.02-.381-2.722-.519-4.084-.246-2.766-.315-4.143-.106-2.8-.106-4.2.036-2.807.106-4.2.176-2.771.315-4.144.313-2.736.519-4.084.446-2.694.718-4.021.577-2.647.913-3.951.7-2.6,1.1-3.875.827-2.546,1.284-3.794.946-2.489,1.462-3.708,1.063-2.431,1.635-3.618,1.175-2.365,1.8-3.52,1.287-2.3,1.966-3.418,1.392-2.229,2.123-3.312,1.494-2.155,2.275-3.2a4.98,4.98,0,1,1,7.977,5.966c-.686.917-1.358,1.862-2,2.81s-1.27,1.928-1.864,2.907-1.177,1.991-1.726,3-1.083,2.053-1.583,3.088-.984,2.109-1.435,3.174-.883,2.164-1.282,3.252-.779,2.214-1.125,3.328-.673,2.262-.965,3.4-.563,2.31-.8,3.465-.45,2.351-.63,3.528-.334,2.39-.456,3.586-.216,2.431-.277,3.642-.093,2.463-.093,3.691.031,2.47.093,3.692.154,2.436.277,3.642.275,2.4.455,3.586.392,2.364.631,3.528.505,2.322.8,3.466.617,2.281.965,3.4.726,2.233,1.126,3.328.83,2.184,1.283,3.252.933,2.132,1.434,3.173,1.031,2.076,1.583,3.089,1.129,2.02,1.726,3,1.222,1.958,1.864,2.909,1.312,1.892,2,2.809,1.4,1.826,2.128,2.708,1.485,1.756,2.253,2.6,1.566,1.682,2.375,2.491a4.98,4.98,0,0,1-3.522,8.5Z" transform="translate(-23333.656 8743.729)" fill="url(#linear-gradient)"/>
  </g>
</svg>
