<svg xmlns="http://www.w3.org/2000/svg" xmlns:xlink="http://www.w3.org/1999/xlink" width="163.242" height="140.793" viewBox="0 0 163.242 140.793">
  <defs>
    <linearGradient id="linear-gradient" y1="0.5" x2="1" y2="0.5" gradientUnits="objectBoundingBox">
      <stop offset="0" stop-color="#f88af7"/>
      <stop offset="1" stop-color="#ff96ff"/>
    </linearGradient>
  </defs>
  <g id="Group_3076" data-name="Group 3076" transform="translate(18804.23 -13731.559)">
    <path id="Path_1091" data-name="Path 1091" d="M4592.313,6668.793a4.98,4.98,0,0,1-3.521-8.5,71.7,71.7,0,1,0-101.343,0,4.98,4.98,0,1,1-7.042,7.043,81.664,81.664,0,1,1,115.428,0A4.967,4.967,0,0,1,4592.313,6668.793Z" transform="translate(-23260.73 7203.559)" fill="#8453d2"/>
    <path id="Path_1092" data-name="Path 1092" d="M4483.928,6668.793a4.966,4.966,0,0,1-3.522-1.459c-.919-.919-1.828-1.873-2.7-2.833s-1.737-1.958-2.564-2.961-1.643-2.041-2.422-3.083-1.546-2.12-2.275-3.2-1.445-2.2-2.123-3.311-1.34-2.268-1.965-3.419-1.233-2.339-1.8-3.519-1.122-2.4-1.635-3.617-1.007-2.467-1.461-3.708-.889-2.524-1.285-3.794-.767-2.578-1.1-3.875-.642-2.633-.912-3.952-.513-2.679-.718-4.02-.38-2.722-.519-4.083-.246-2.767-.315-4.145-.106-2.8-.106-4.2.036-2.808.106-4.2.176-2.771.315-4.143.313-2.737.519-4.085.447-2.693.719-4.02.576-2.646.911-3.951.7-2.6,1.1-3.875.827-2.547,1.284-3.793.946-2.49,1.461-3.708,1.063-2.431,1.635-3.617,1.175-2.364,1.8-3.52,1.287-2.3,1.965-3.418,1.392-2.23,2.123-3.312,1.494-2.155,2.275-3.2,1.594-2.08,2.422-3.083,1.69-2,2.565-2.96,1.782-1.914,2.7-2.833,1.874-1.83,2.834-2.7,1.958-1.738,2.961-2.564,2.041-1.643,3.083-2.422,2.12-1.546,3.2-2.275,2.2-1.445,3.311-2.122,2.268-1.341,3.419-1.966,2.339-1.233,3.52-1.8,2.4-1.122,3.616-1.635,2.467-1.007,3.708-1.462,2.524-.889,3.794-1.284,2.578-.767,3.875-1.1,2.632-.642,3.95-.913,2.679-.512,4.02-.717,2.722-.381,4.084-.519,2.766-.245,4.143-.316,2.8-.105,4.2-.105,2.808.036,4.2.105,2.771.176,4.144.316,2.736.313,4.084.519,2.694.446,4.021.717,2.647.577,3.95.913,2.6.7,3.875,1.1,2.546.827,3.794,1.284,2.489.946,3.708,1.462,2.43,1.063,3.617,1.635,2.365,1.175,3.52,1.8,2.3,1.287,3.419,1.966,2.229,1.391,3.311,2.122,2.156,1.494,3.2,2.275,2.079,1.594,3.083,2.423a4.98,4.98,0,0,1-6.34,7.681c-.882-.727-1.793-1.444-2.708-2.128s-1.862-1.358-2.81-2-1.928-1.27-2.908-1.864-1.99-1.176-3-1.726-2.053-1.083-3.089-1.582-2.109-.985-3.173-1.435-2.164-.883-3.253-1.283-2.214-.779-3.327-1.125-2.262-.673-3.4-.966-2.31-.563-3.466-.8-2.351-.45-3.527-.63-2.391-.334-3.587-.456-2.431-.216-3.642-.277-2.464-.093-3.691-.093-2.47.031-3.692.093-2.435.154-3.642.277-2.4.275-3.585.456-2.364.392-3.528.63-2.323.506-3.466.8-2.28.618-3.4.965-2.233.725-3.328,1.126-2.183.831-3.252,1.283-2.132.934-3.173,1.435-2.075,1.031-3.089,1.582-2.019,1.129-3,1.726-1.958,1.222-2.909,1.864-1.893,1.313-2.81,2-1.826,1.4-2.708,2.128-1.756,1.484-2.6,2.253-1.682,1.565-2.491,2.374-1.606,1.646-2.373,2.49-1.526,1.721-2.253,2.6-1.444,1.793-2.129,2.708-1.358,1.862-2,2.81-1.27,1.929-1.864,2.908-1.177,1.99-1.726,3-1.083,2.053-1.582,3.089-.984,2.108-1.435,3.173-.883,2.164-1.283,3.252-.779,2.215-1.125,3.328-.673,2.262-.965,3.4-.563,2.31-.8,3.465-.45,2.352-.63,3.528-.334,2.391-.456,3.587-.216,2.431-.277,3.641-.093,2.464-.093,3.692.031,2.471.093,3.692.154,2.435.277,3.641.275,2.4.456,3.586.392,2.364.63,3.528.506,2.322.8,3.466.617,2.28.965,3.4.726,2.234,1.125,3.328.831,2.184,1.283,3.253.933,2.133,1.434,3.173,1.031,2.076,1.582,3.089,1.129,2.021,1.726,3,1.222,1.958,1.864,2.908,1.312,1.893,2,2.81,1.4,1.827,2.128,2.708,1.485,1.756,2.253,2.6,1.566,1.682,2.375,2.491a4.98,4.98,0,0,1-3.522,8.5Z" transform="translate(-23260.73 7203.559)" fill="url(#linear-gradient)"/>
  </g>
</svg>
