<svg xmlns="http://www.w3.org/2000/svg" xmlns:xlink="http://www.w3.org/1999/xlink" width="163.24" height="140.794" viewBox="0 0 163.24 140.794">
  <defs>
    <linearGradient id="linear-gradient" y1="0.5" x2="1" y2="0.5" gradientUnits="objectBoundingBox">
      <stop offset="0" stop-color="#f88af7"/>
      <stop offset="1" stop-color="#ff96ff"/>
    </linearGradient>
  </defs>
  <g id="Group_3084" data-name="Group 3084" transform="translate(19507.107 -13904.207)">
    <path id="Path_1095" data-name="Path 1095" d="M-1758.687,8228.794a4.968,4.968,0,0,1-3.522-1.458,4.981,4.981,0,0,1,0-7.044,71.425,71.425,0,0,0,15.359-22.78,71.2,71.2,0,0,0,5.629-27.891,71.205,71.205,0,0,0-5.629-27.892,71.418,71.418,0,0,0-15.359-22.78,71.419,71.419,0,0,0-22.78-15.36,71.206,71.206,0,0,0-27.892-5.629,71.207,71.207,0,0,0-27.892,5.629,71.422,71.422,0,0,0-22.78,15.36,71.422,71.422,0,0,0-15.359,22.78,71.205,71.205,0,0,0-5.629,27.892,71.2,71.2,0,0,0,5.629,27.891,71.429,71.429,0,0,0,15.359,22.78,4.981,4.981,0,0,1,0,7.044,4.981,4.981,0,0,1-7.043,0,81.364,81.364,0,0,1-17.49-25.942,81.119,81.119,0,0,1-6.416-31.772,81.111,81.111,0,0,1,6.416-31.772,81.348,81.348,0,0,1,17.49-25.942,81.34,81.34,0,0,1,25.943-17.49A81.124,81.124,0,0,1-1812.88,8088a81.126,81.126,0,0,1,31.772,6.417,81.344,81.344,0,0,1,25.943,17.49,81.352,81.352,0,0,1,17.49,25.943,81.109,81.109,0,0,1,6.416,31.772,81.117,81.117,0,0,1-6.416,31.772,81.36,81.36,0,0,1-17.49,25.942A4.967,4.967,0,0,1-1758.687,8228.794Z" transform="translate(-17612.607 5816.207)" fill="#8453d2"/>
    <path id="Path_1096" data-name="Path 1096" d="M-1867.072,8228.794a4.967,4.967,0,0,1-3.522-1.458c-.92-.921-1.828-1.874-2.7-2.835s-1.737-1.957-2.564-2.959-1.644-2.043-2.422-3.084-1.546-2.119-2.275-3.2-1.445-2.2-2.123-3.312-1.341-2.27-1.965-3.419-1.234-2.339-1.8-3.521-1.122-2.4-1.635-3.615-1.007-2.466-1.462-3.709-.889-2.524-1.284-3.795-.767-2.58-1.1-3.874-.642-2.632-.911-3.952-.513-2.679-.718-4.02-.381-2.724-.519-4.084-.245-2.764-.315-4.144-.106-2.8-.106-4.2.036-2.807.106-4.2.176-2.773.315-4.143.313-2.736.519-4.085.447-2.693.718-4.021.576-2.647.911-3.95.7-2.6,1.1-3.875.827-2.546,1.284-3.794.947-2.491,1.462-3.708,1.063-2.43,1.635-3.617,1.176-2.365,1.8-3.521,1.286-2.3,1.965-3.417,1.392-2.229,2.123-3.312,1.495-2.155,2.275-3.2,1.594-2.079,2.422-3.083,1.69-2,2.565-2.96,1.782-1.914,2.7-2.833,1.872-1.828,2.834-2.7,1.958-1.738,2.961-2.565,2.041-1.643,3.082-2.423,2.121-1.545,3.2-2.274,2.2-1.445,3.311-2.123,2.269-1.341,3.418-1.966,2.339-1.233,3.52-1.8,2.4-1.122,3.616-1.635,2.466-1.007,3.708-1.462,2.524-.889,3.795-1.284,2.578-.767,3.875-1.1,2.632-.643,3.951-.913,2.679-.513,4.02-.718,2.722-.38,4.084-.519,2.767-.246,4.144-.316,2.8-.106,4.2-.106,2.807.037,4.2.106,2.771.176,4.143.316,2.737.313,4.085.519,2.693.446,4.02.718,2.647.577,3.95.913,2.6.7,3.875,1.1,2.547.827,3.794,1.284,2.489.946,3.708,1.462,2.43,1.063,3.617,1.635,2.366,1.175,3.52,1.8,2.3,1.286,3.419,1.966,2.229,1.392,3.311,2.123,2.155,1.494,3.2,2.274,2.079,1.6,3.083,2.423,2,1.69,2.96,2.565,1.914,1.783,2.833,2.7,1.829,1.874,2.7,2.834,1.737,1.958,2.564,2.96,1.644,2.041,2.422,3.083,1.546,2.119,2.275,3.2,1.445,2.2,2.123,3.312,1.341,2.269,1.966,3.417,1.234,2.339,1.8,3.521,1.122,2.4,1.635,3.616,1.007,2.465,1.462,3.708.889,2.525,1.284,3.793.767,2.581,1.1,3.875.642,2.632.912,3.95.513,2.68.718,4.021.381,2.723.519,4.085.245,2.763.315,4.143.106,2.8.106,4.2-.036,2.807-.106,4.195a4.981,4.981,0,0,1-5.226,4.724,4.982,4.982,0,0,1-4.722-5.227c.062-1.221.093-2.464.093-3.691s-.031-2.47-.093-3.692-.155-2.437-.277-3.641-.275-2.4-.456-3.586-.392-2.364-.63-3.528-.506-2.324-.8-3.466-.617-2.279-.965-3.4-.725-2.233-1.126-3.328-.831-2.184-1.282-3.252-.933-2.132-1.435-3.173-1.032-2.077-1.582-3.089-1.129-2.019-1.725-3-1.222-1.957-1.864-2.908-1.313-1.894-2-2.81-1.4-1.826-2.128-2.708-1.485-1.757-2.253-2.6-1.566-1.683-2.374-2.49-1.645-1.606-2.49-2.374-1.72-1.527-2.6-2.253-1.793-1.445-2.708-2.129-1.863-1.358-2.81-2-1.929-1.27-2.908-1.864-1.992-1.177-3-1.726-2.053-1.082-3.089-1.582-2.109-.985-3.173-1.436-2.163-.883-3.253-1.283-2.213-.778-3.328-1.125-2.261-.673-3.4-.965-2.309-.564-3.465-.8-2.351-.45-3.528-.63-2.39-.334-3.587-.456-2.43-.216-3.641-.277-2.464-.093-3.692-.093-2.47.031-3.692.093-2.436.154-3.641.277-2.4.275-3.586.456-2.364.392-3.528.63-2.323.506-3.465.8-2.281.618-3.4.965-2.234.726-3.328,1.126-2.184.831-3.253,1.283-2.132.934-3.173,1.436-2.076,1.031-3.089,1.582-2.019,1.129-3,1.726-1.957,1.222-2.908,1.864-1.893,1.312-2.81,2-1.826,1.4-2.708,2.128-1.756,1.486-2.6,2.254-1.682,1.565-2.49,2.375-1.606,1.645-2.374,2.488-1.526,1.721-2.254,2.6-1.444,1.793-2.128,2.708-1.358,1.862-2,2.811-1.269,1.928-1.864,2.907-1.177,1.992-1.725,3-1.083,2.052-1.582,3.088-.984,2.109-1.435,3.174-.883,2.162-1.282,3.252-.78,2.214-1.126,3.328-.673,2.263-.965,3.4-.563,2.309-.8,3.465-.45,2.353-.63,3.529-.334,2.391-.456,3.586-.215,2.429-.277,3.641-.093,2.464-.093,3.692.031,2.47.093,3.691.155,2.438.277,3.641.275,2.4.456,3.586.392,2.364.63,3.528.506,2.323.8,3.466.617,2.279.965,3.4.725,2.233,1.126,3.327.831,2.186,1.282,3.253.933,2.133,1.435,3.174,1.032,2.076,1.582,3.089,1.129,2.019,1.725,3,1.222,1.956,1.864,2.906,1.313,1.894,2,2.811,1.4,1.826,2.128,2.707,1.485,1.757,2.253,2.6,1.566,1.682,2.374,2.489a4.981,4.981,0,0,1,0,7.044A4.967,4.967,0,0,1-1867.072,8228.794Z" transform="translate(-17612.607 5816.207)" fill="url(#linear-gradient)"/>
  </g>
</svg>
