<svg xmlns="http://www.w3.org/2000/svg" xmlns:xlink="http://www.w3.org/1999/xlink" width="163.24" height="140.794" viewBox="0 0 163.24 140.794">
  <defs>
    <linearGradient id="linear-gradient" y1="0.5" x2="1" y2="0.5" gradientUnits="objectBoundingBox">
      <stop offset="0" stop-color="#f88af7"/>
      <stop offset="1" stop-color="#ff96ff"/>
    </linearGradient>
  </defs>
  <g id="Group_3080" data-name="Group 3080" transform="translate(19748.371 -13741.188)">
    <path id="Path_1081" data-name="Path 1081" d="M-3938.687,6755.794a4.966,4.966,0,0,1-3.521-1.459,4.98,4.98,0,0,1,0-7.043,71.428,71.428,0,0,0,15.359-22.78,71.209,71.209,0,0,0,5.629-27.892,71.215,71.215,0,0,0-5.629-27.892,71.432,71.432,0,0,0-15.359-22.779,71.434,71.434,0,0,0-22.78-15.359,71.206,71.206,0,0,0-27.892-5.629,71.205,71.205,0,0,0-27.892,5.629,71.438,71.438,0,0,0-22.78,15.359,71.435,71.435,0,0,0-15.359,22.779,71.211,71.211,0,0,0-5.629,27.892,71.2,71.2,0,0,0,5.629,27.892,71.432,71.432,0,0,0,15.359,22.78,4.98,4.98,0,0,1,0,7.043,4.98,4.98,0,0,1-7.043,0,81.343,81.343,0,0,1-17.49-25.942,81.115,81.115,0,0,1-6.416-31.772,81.109,81.109,0,0,1,6.416-31.771,81.332,81.332,0,0,1,17.49-25.942,81.34,81.34,0,0,1,25.942-17.49A81.1,81.1,0,0,1-3992.88,6615a81.1,81.1,0,0,1,31.772,6.417,81.35,81.35,0,0,1,25.942,17.489,81.339,81.339,0,0,1,17.49,25.943,81.105,81.105,0,0,1,6.416,31.771,81.111,81.111,0,0,1-6.416,31.772,81.335,81.335,0,0,1-17.49,25.942A4.965,4.965,0,0,1-3938.687,6755.794Z" transform="translate(-15673.871 7126.188)" fill="#8453d2"/>
    <path id="Path_1082" data-name="Path 1082" d="M-4047.073,6775.173a4.964,4.964,0,0,1-3.521-1.458c-.92-.92-1.828-1.874-2.7-2.833s-1.737-1.958-2.564-2.96-1.643-2.041-2.422-3.083-1.546-2.12-2.275-3.2-1.445-2.2-2.123-3.312-1.34-2.268-1.965-3.419-1.234-2.338-1.8-3.52-1.122-2.4-1.635-3.617-1.007-2.466-1.462-3.708-.889-2.525-1.284-3.794-.768-2.58-1.1-3.875-.642-2.632-.912-3.951-.513-2.68-.718-4.021-.381-2.724-.519-4.084-.245-2.765-.315-4.144-.106-2.8-.106-4.2.036-2.807.106-4.2.176-2.771.315-4.143.313-2.735.519-4.084.446-2.693.718-4.021.576-2.647.912-3.951.7-2.6,1.1-3.875.827-2.546,1.284-3.794.947-2.49,1.462-3.708,1.063-2.429,1.635-3.617,1.176-2.366,1.8-3.52,1.286-2.3,1.965-3.418,1.392-2.229,2.123-3.311,1.495-2.156,2.275-3.2,1.594-2.08,2.422-3.083,1.69-2,2.565-2.96,1.782-1.914,2.7-2.833,1.873-1.828,2.834-2.7,1.958-1.738,2.96-2.564,2.041-1.644,3.083-2.422,2.121-1.546,3.2-2.275,2.2-1.445,3.311-2.123,2.269-1.34,3.418-1.966,2.339-1.233,3.52-1.8,2.4-1.122,3.616-1.635,2.467-1.007,3.708-1.462,2.524-.889,3.794-1.284,2.578-.767,3.875-1.1a4.98,4.98,0,0,1,6.064,3.582,4.981,4.981,0,0,1-3.582,6.064c-1.137.292-2.281.618-3.4.965s-2.234.725-3.328,1.126-2.183.83-3.253,1.283-2.132.933-3.173,1.434-2.076,1.032-3.089,1.582-2.019,1.129-3,1.725-1.958,1.222-2.908,1.864-1.893,1.313-2.81,2-1.825,1.4-2.708,2.128-1.756,1.485-2.6,2.253-1.682,1.566-2.49,2.374-1.606,1.645-2.374,2.49-1.526,1.72-2.253,2.6-1.443,1.793-2.128,2.708-1.358,1.862-2,2.811-1.269,1.928-1.864,2.907-1.177,1.991-1.725,3-1.082,2.052-1.582,3.089-.985,2.109-1.435,3.173-.884,2.163-1.282,3.252-.78,2.215-1.126,3.328-.673,2.264-.965,3.4-.563,2.309-.8,3.466-.45,2.351-.63,3.528-.334,2.391-.456,3.586-.216,2.429-.277,3.641-.094,2.464-.094,3.692.031,2.47.093,3.691.155,2.437.277,3.642.275,2.4.456,3.586.392,2.364.63,3.527.506,2.322.8,3.465.617,2.28.965,3.4.725,2.232,1.126,3.328.83,2.184,1.282,3.252.932,2.131,1.435,3.173,1.032,2.077,1.582,3.089,1.129,2.019,1.725,3,1.223,1.958,1.865,2.907,1.313,1.894,2,2.81,1.4,1.827,2.128,2.708,1.485,1.756,2.253,2.6,1.566,1.682,2.374,2.49a4.98,4.98,0,0,1,0,7.043A4.962,4.962,0,0,1-4047.073,6775.173Z" transform="translate(-15673.871 7106.807)" fill="url(#linear-gradient)"/>
  </g>
</svg>
