<svg xmlns="http://www.w3.org/2000/svg" xmlns:xlink="http://www.w3.org/1999/xlink" width="163.24" height="140.794" viewBox="0 0 163.24 140.794">
  <defs>
    <linearGradient id="linear-gradient" y1="0.5" x2="1" y2="0.5" gradientUnits="objectBoundingBox">
      <stop offset="0" stop-color="#f88af7"/>
      <stop offset="1" stop-color="#ff96ff"/>
    </linearGradient>
  </defs>
  <g id="Group_3083" data-name="Group 3083" transform="translate(19739.186 -13904.207)">
    <path id="Path_1105" data-name="Path 1105" d="M-3855.687,8228.794a4.967,4.967,0,0,1-3.521-1.458,4.981,4.981,0,0,1,0-7.044,71.43,71.43,0,0,0,15.36-22.78,71.207,71.207,0,0,0,5.629-27.891,71.211,71.211,0,0,0-5.629-27.892,71.422,71.422,0,0,0-15.36-22.78,71.421,71.421,0,0,0-22.779-15.36,71.208,71.208,0,0,0-27.892-5.629,71.206,71.206,0,0,0-27.892,5.629,71.425,71.425,0,0,0-22.78,15.36,71.426,71.426,0,0,0-15.359,22.78,71.2,71.2,0,0,0-5.629,27.892,71.2,71.2,0,0,0,5.629,27.891,71.433,71.433,0,0,0,15.359,22.78,4.981,4.981,0,0,1,0,7.044,4.981,4.981,0,0,1-7.043,0,81.365,81.365,0,0,1-17.49-25.942,81.125,81.125,0,0,1-6.416-31.772,81.118,81.118,0,0,1,6.416-31.772,81.349,81.349,0,0,1,17.49-25.942,81.337,81.337,0,0,1,25.942-17.49A81.126,81.126,0,0,1-3909.88,8088a81.125,81.125,0,0,1,31.772,6.417,81.347,81.347,0,0,1,25.943,17.49,81.351,81.351,0,0,1,17.49,25.943,81.11,81.11,0,0,1,6.417,31.772,81.117,81.117,0,0,1-6.417,31.772,81.36,81.36,0,0,1-17.49,25.942A4.967,4.967,0,0,1-3855.687,8228.794Z" transform="translate(-15747.686 5816.207)" fill="#8453d2"/>
    <path id="Path_1106" data-name="Path 1106" d="M-3964.073,8228.794a4.967,4.967,0,0,1-3.521-1.458c-.92-.921-1.828-1.874-2.7-2.835s-1.737-1.957-2.564-2.96-1.643-2.041-2.422-3.083-1.546-2.119-2.275-3.2-1.445-2.2-2.123-3.312-1.34-2.268-1.965-3.418-1.234-2.339-1.8-3.52-1.123-2.405-1.635-3.616-1.007-2.467-1.462-3.709-.889-2.525-1.284-3.795-.767-2.58-1.1-3.874-.642-2.633-.912-3.952-.513-2.679-.718-4.02-.381-2.724-.519-4.084-.245-2.766-.315-4.145-.106-2.8-.106-4.195.036-2.808.106-4.2.176-2.772.315-4.143.313-2.735.519-4.085.447-2.693.718-4.021.577-2.646.912-3.95.7-2.6,1.1-3.875.827-2.545,1.284-3.793.947-2.49,1.462-3.708,1.063-2.43,1.635-3.617,1.176-2.365,1.8-3.52,1.286-2.3,1.966-3.418,1.392-2.229,2.123-3.312,1.5-2.154,2.276-3.2,1.594-2.08,2.422-3.083,1.69-2,2.564-2.96,1.782-1.914,2.7-2.833,1.873-1.828,2.834-2.7,1.958-1.738,2.961-2.565,2.041-1.644,3.082-2.423,2.121-1.545,3.2-2.274,2.2-1.445,3.311-2.123,2.269-1.341,3.418-1.966,2.339-1.233,3.52-1.8,2.4-1.122,3.616-1.635,2.467-1.007,3.708-1.462,2.524-.889,3.794-1.284,2.578-.767,3.875-1.1,2.632-.643,3.95-.913,2.679-.513,4.021-.718,2.722-.38,4.084-.519,2.767-.246,4.144-.316,2.8-.106,4.2-.106,2.808.037,4.2.106,2.771.176,4.143.316,2.737.313,4.085.519,2.694.446,4.021.718,2.647.577,3.95.913,2.6.7,3.875,1.1,2.546.827,3.794,1.284,2.489.946,3.708,1.462,2.43,1.063,3.617,1.635,2.365,1.175,3.52,1.8,2.3,1.286,3.418,1.966,2.229,1.392,3.311,2.123,2.155,1.494,3.2,2.274,2.078,1.594,3.083,2.423,2,1.69,2.96,2.565,1.915,1.783,2.834,2.7,1.828,1.874,2.7,2.834,1.737,1.958,2.564,2.96,1.643,2.04,2.423,3.083,1.546,2.119,2.275,3.2,1.445,2.2,2.123,3.312,1.341,2.268,1.966,3.417,1.233,2.339,1.8,3.521,1.122,2.4,1.635,3.617,1.007,2.466,1.462,3.708.889,2.525,1.284,3.793.767,2.581,1.1,3.875.642,2.632.912,3.95a4.98,4.98,0,0,1-3.881,5.878,4.974,4.974,0,0,1-1,.1,4.983,4.983,0,0,1-4.874-3.984c-.237-1.156-.506-2.323-.8-3.465s-.617-2.279-.965-3.4-.725-2.233-1.126-3.328-.831-2.183-1.282-3.252-.933-2.132-1.435-3.174-1.032-2.076-1.582-3.088-1.129-2.02-1.725-3-1.222-1.958-1.864-2.908-1.313-1.893-2-2.81-1.4-1.827-2.128-2.708-1.485-1.756-2.253-2.6-1.566-1.683-2.374-2.49-1.645-1.606-2.49-2.374-1.72-1.527-2.6-2.253-1.794-1.445-2.708-2.129-1.863-1.358-2.81-2-1.929-1.27-2.908-1.864-1.991-1.177-3-1.726-2.053-1.083-3.089-1.582-2.109-.985-3.173-1.436-2.164-.883-3.252-1.283-2.214-.778-3.328-1.125-2.261-.673-3.4-.966-2.309-.563-3.465-.8-2.351-.45-3.528-.63-2.39-.334-3.587-.456-2.43-.216-3.641-.277-2.464-.093-3.692-.093-2.47.031-3.692.093-2.435.154-3.641.277-2.4.275-3.586.456-2.364.392-3.528.63-2.322.506-3.466.8-2.281.617-3.4.964-2.234.726-3.328,1.126-2.184.831-3.253,1.283-2.132.934-3.173,1.436-2.076,1.031-3.089,1.582-2.019,1.129-3,1.726-1.958,1.222-2.908,1.864-1.893,1.312-2.81,2-1.826,1.4-2.708,2.128-1.756,1.486-2.6,2.254-1.682,1.565-2.49,2.374-1.607,1.646-2.374,2.489-1.527,1.721-2.253,2.6-1.443,1.793-2.128,2.708-1.358,1.862-2,2.811-1.269,1.928-1.864,2.907-1.177,1.991-1.725,3-1.083,2.052-1.582,3.088-.985,2.11-1.435,3.174-.884,2.163-1.282,3.252-.78,2.215-1.126,3.328-.673,2.263-.965,3.4-.563,2.31-.8,3.465-.45,2.352-.63,3.529-.335,2.391-.456,3.586-.215,2.43-.277,3.641-.094,2.464-.094,3.692.031,2.47.094,3.691.155,2.438.277,3.641.275,2.4.456,3.586.392,2.364.63,3.528.506,2.322.8,3.466.617,2.278.965,3.4.725,2.233,1.126,3.327.83,2.186,1.282,3.253.933,2.132,1.435,3.175,1.032,2.075,1.582,3.088,1.129,2.02,1.725,3,1.222,1.957,1.864,2.906,1.313,1.894,2,2.811,1.4,1.826,2.128,2.707,1.485,1.757,2.253,2.6,1.566,1.682,2.374,2.489a4.981,4.981,0,0,1,0,7.044A4.967,4.967,0,0,1-3964.073,8228.794Z" transform="translate(-15747.686 5816.207)" fill="url(#linear-gradient)"/>
  </g>
</svg>
