<svg xmlns="http://www.w3.org/2000/svg" xmlns:xlink="http://www.w3.org/1999/xlink" width="163.24" height="140.793" viewBox="0 0 163.24 140.793">
  <defs>
    <linearGradient id="linear-gradient" y1="0.5" x2="1" y2="0.5" gradientUnits="objectBoundingBox">
      <stop offset="0" stop-color="#f88af7"/>
      <stop offset="1" stop-color="#ff96ff"/>
    </linearGradient>
  </defs>
  <g id="Group_3078" data-name="Group 3078" transform="translate(19279.898 -13731.559)">
    <path id="Path_1087" data-name="Path 1087" d="M294.313,6668.793a4.98,4.98,0,0,1-3.521-8.5,71.7,71.7,0,1,0-101.343,0,4.98,4.98,0,0,1-7.043,7.043,81.665,81.665,0,1,1,115.429,0A4.967,4.967,0,0,1,294.313,6668.793Z" transform="translate(-19438.398 7203.559)" fill="#8453d2"/>
    <path id="Path_1088" data-name="Path 1088" d="M185.928,6668.793a4.967,4.967,0,0,1-3.522-1.458c-.919-.92-1.829-1.874-2.7-2.834s-1.737-1.958-2.564-2.961-1.644-2.041-2.422-3.083-1.546-2.119-2.275-3.2-1.445-2.2-2.123-3.311-1.341-2.269-1.966-3.419-1.234-2.338-1.8-3.519-1.122-2.4-1.635-3.617-1.007-2.466-1.462-3.708-.889-2.525-1.284-3.794-.767-2.58-1.1-3.875-.642-2.631-.912-3.951-.513-2.68-.718-4.021-.381-2.724-.519-4.083-.245-2.765-.315-4.144-.106-2.8-.106-4.2.036-2.807.106-4.2.176-2.773.315-4.144.313-2.735.519-4.083.446-2.693.718-4.021.577-2.648.912-3.951.7-2.6,1.1-3.874.827-2.547,1.284-3.794.947-2.491,1.462-3.708,1.063-2.431,1.635-3.617,1.176-2.366,1.8-3.52,1.286-2.3,1.965-3.418,1.392-2.23,2.123-3.312,1.5-2.156,2.275-3.2,1.594-2.079,2.422-3.083,1.69-2,2.565-2.961,1.782-1.914,2.7-2.833,1.872-1.828,2.834-2.7,1.958-1.738,2.961-2.564,2.041-1.643,3.082-2.422,2.121-1.547,3.2-2.275,2.2-1.445,3.311-2.122,2.269-1.341,3.418-1.966,2.339-1.233,3.52-1.8,2.4-1.122,3.616-1.635,2.466-1.007,3.708-1.462,2.524-.889,3.794-1.284,2.578-.767,3.875-1.1,2.632-.642,3.951-.913,2.679-.512,4.02-.717,2.722-.381,4.084-.519,2.767-.245,4.144-.316,2.8-.105,4.2-.105,2.807.036,4.2.105,2.771.176,4.143.316,2.737.313,4.085.519,2.693.446,4.02.717a4.981,4.981,0,0,1-2,9.759c-1.164-.238-2.351-.45-3.528-.63s-2.39-.334-3.587-.456-2.43-.216-3.641-.277-2.464-.093-3.692-.093-2.47.031-3.692.093-2.436.154-3.642.277-2.4.275-3.586.456-2.364.392-3.528.63-2.323.506-3.465.8-2.281.618-3.4.965-2.234.725-3.328,1.126-2.184.831-3.253,1.283-2.132.933-3.173,1.435-2.076,1.031-3.089,1.582-2.019,1.129-3,1.726-1.958,1.222-2.908,1.863-1.893,1.313-2.81,2-1.826,1.4-2.708,2.128-1.756,1.485-2.6,2.253-1.682,1.565-2.49,2.374-1.606,1.646-2.373,2.49-1.526,1.721-2.253,2.6-1.444,1.793-2.128,2.708-1.358,1.861-2,2.81-1.269,1.929-1.864,2.908-1.177,1.992-1.725,3-1.083,2.052-1.582,3.089-.984,2.108-1.435,3.173-.883,2.163-1.282,3.252-.78,2.215-1.126,3.328-.673,2.263-.965,3.4-.563,2.309-.8,3.465-.45,2.352-.63,3.528-.334,2.392-.456,3.587-.215,2.429-.277,3.642-.093,2.464-.093,3.691.031,2.47.093,3.692.155,2.437.277,3.641.275,2.4.456,3.586.392,2.364.63,3.528.506,2.323.8,3.466.617,2.278.965,3.4.725,2.232,1.126,3.327.831,2.185,1.282,3.253.933,2.132,1.435,3.173,1.032,2.077,1.582,3.089,1.129,2.019,1.725,3,1.222,1.957,1.864,2.907,1.313,1.894,2,2.81,1.4,1.827,2.128,2.708,1.485,1.757,2.253,2.6,1.566,1.683,2.374,2.491a4.98,4.98,0,0,1-3.522,8.5Z" transform="translate(-19438.398 7203.559)" fill="url(#linear-gradient)"/>
  </g>
</svg>
