<svg xmlns="http://www.w3.org/2000/svg" xmlns:xlink="http://www.w3.org/1999/xlink" width="163.24" height="140.794" viewBox="0 0 163.24 140.794">
  <defs>
    <linearGradient id="linear-gradient" y1="0.5" x2="1" y2="0.5" gradientUnits="objectBoundingBox">
      <stop offset="0" stop-color="#f88af7"/>
      <stop offset="1" stop-color="#ff96ff"/>
    </linearGradient>
  </defs>
  <g id="Group_3071" data-name="Group 3071" transform="translate(19270.934 -13509.108)">
    <path id="Path_1066" data-name="Path 1066" d="M375.313,4658.794a4.98,4.98,0,0,1-3.521-8.5,71.7,71.7,0,1,0-101.343,0,4.98,4.98,0,0,1-7.043,7.043,81.664,81.664,0,1,1,115.429,0A4.966,4.966,0,0,1,375.313,4658.794Z" transform="translate(-19510.434 8991.108)" fill="#8453d2"/>
    <path id="Path_1067" data-name="Path 1067" d="M266.928,5211.684a4.966,4.966,0,0,1-3.522-1.458c-.919-.92-1.828-1.874-2.7-2.834s-1.737-1.958-2.564-2.96-1.644-2.042-2.422-3.083-1.546-2.12-2.275-3.2-1.445-2.2-2.123-3.311-1.341-2.27-1.966-3.419-1.234-2.339-1.8-3.52-1.122-2.4-1.635-3.616-1.007-2.465-1.462-3.708-.889-2.525-1.284-3.794-.767-2.581-1.1-3.875-.642-2.632-.912-3.951-.513-2.68-.718-4.021-.381-2.724-.519-4.084-.245-2.764-.315-4.144-.106-2.8-.106-4.2.036-2.807.106-4.2.176-2.773.315-4.144a4.98,4.98,0,0,1,9.909,1.007c-.122,1.2-.215,2.428-.277,3.641s-.093,2.463-.093,3.692.031,2.47.093,3.691.155,2.438.277,3.641.275,2.4.456,3.587.392,2.363.63,3.528.506,2.323.8,3.465.617,2.279.965,3.4.725,2.232,1.126,3.327.831,2.185,1.282,3.253.933,2.132,1.435,3.173,1.032,2.077,1.582,3.089,1.129,2.019,1.725,3,1.222,1.957,1.864,2.907,1.313,1.894,2,2.81,1.4,1.826,2.128,2.708,1.485,1.756,2.253,2.6,1.566,1.682,2.374,2.49a4.98,4.98,0,0,1-3.522,8.5Z" transform="translate(-19510.434 8438.218)" fill="url(#linear-gradient)"/>
  </g>
</svg>
