<svg xmlns="http://www.w3.org/2000/svg" xmlns:xlink="http://www.w3.org/1999/xlink" width="163.24" height="140.794" viewBox="0 0 163.24 140.794">
  <defs>
    <linearGradient id="linear-gradient" y1="0.5" x2="1" y2="0.5" gradientUnits="objectBoundingBox">
      <stop offset="0" stop-color="#f88af7"/>
      <stop offset="1" stop-color="#ff96ff"/>
    </linearGradient>
  </defs>
  <g id="Group_3070" data-name="Group 3070" transform="translate(19507.66 -13509.108)">
    <path id="Path_1063" data-name="Path 1063" d="M-1763.687,4658.794a4.966,4.966,0,0,1-3.521-1.458,4.981,4.981,0,0,1,0-7.043,71.418,71.418,0,0,0,15.359-22.78,71.2,71.2,0,0,0,5.629-27.892,71.2,71.2,0,0,0-5.629-27.891,71.425,71.425,0,0,0-15.359-22.78,71.434,71.434,0,0,0-22.78-15.359,71.2,71.2,0,0,0-27.892-5.629,71.2,71.2,0,0,0-27.892,5.629,71.435,71.435,0,0,0-22.78,15.359,71.431,71.431,0,0,0-15.359,22.78,71.206,71.206,0,0,0-5.629,27.891,71.2,71.2,0,0,0,5.629,27.892,71.424,71.424,0,0,0,15.359,22.78,4.981,4.981,0,0,1,0,7.043,4.98,4.98,0,0,1-7.043,0,81.348,81.348,0,0,1-17.49-25.943,81.111,81.111,0,0,1-6.416-31.772,81.112,81.112,0,0,1,6.416-31.771,81.335,81.335,0,0,1,17.49-25.942,81.339,81.339,0,0,1,25.943-17.49A81.117,81.117,0,0,1-1817.88,4518a81.117,81.117,0,0,1,31.772,6.417,81.34,81.34,0,0,1,25.943,17.49,81.333,81.333,0,0,1,17.49,25.942,81.112,81.112,0,0,1,6.416,31.771,81.111,81.111,0,0,1-6.416,31.772,81.346,81.346,0,0,1-17.49,25.943A4.966,4.966,0,0,1-1763.687,4658.794Z" transform="translate(-17608.16 8991.108)" fill="#8453d2"/>
    <path id="Path_1064" data-name="Path 1064" d="M-1868.9,5337.617a4.965,4.965,0,0,1-3.522-1.459c-.919-.919-1.828-1.873-2.7-2.833s-1.737-1.958-2.564-2.96-1.644-2.042-2.422-3.083-1.546-2.12-2.275-3.2-1.446-2.2-2.123-3.312-1.341-2.269-1.965-3.419-1.234-2.338-1.8-3.52-1.122-2.4-1.635-3.617-1.007-2.465-1.462-3.708-.889-2.524-1.284-3.794-.767-2.58-1.1-3.875-.642-2.631-.912-3.951-.513-2.68-.718-4.02-.381-2.724-.519-4.084a4.98,4.98,0,0,1,4.451-5.458,4.979,4.979,0,0,1,5.458,4.452c.121,1.2.275,2.4.456,3.586s.392,2.363.63,3.528.506,2.323.8,3.465.617,2.28.965,3.4.725,2.233,1.126,3.328.831,2.184,1.282,3.252.933,2.132,1.435,3.173,1.032,2.076,1.582,3.089,1.129,2.019,1.725,3,1.222,1.957,1.864,2.908,1.313,1.893,2,2.81,1.4,1.826,2.128,2.708,1.485,1.756,2.253,2.6,1.566,1.682,2.374,2.491a4.979,4.979,0,0,1,0,7.042A4.964,4.964,0,0,1-1868.9,5337.617Z" transform="translate(-17611.338 8312.285)" fill="url(#linear-gradient)"/>
  </g>
</svg>
