<svg xmlns="http://www.w3.org/2000/svg" xmlns:xlink="http://www.w3.org/1999/xlink" width="163.24" height="140.793" viewBox="0 0 163.24 140.793">
  <defs>
    <linearGradient id="linear-gradient" y1="0.5" x2="1" y2="0.5" gradientUnits="objectBoundingBox">
      <stop offset="0" stop-color="#f88af7"/>
      <stop offset="1" stop-color="#ff96ff"/>
    </linearGradient>
  </defs>
  <g id="Group_3077" data-name="Group 3077" transform="translate(19038.191 -13731.559)">
    <path id="Path_1089" data-name="Path 1089" d="M2478.313,6668.793a4.98,4.98,0,0,1-3.522-8.5,71.7,71.7,0,1,0-101.343,0,4.98,4.98,0,0,1-7.043,7.043,81.665,81.665,0,1,1,115.429,0A4.965,4.965,0,0,1,2478.313,6668.793Z" transform="translate(-21380.691 7203.559)" fill="#8453d2"/>
    <path id="Path_1090" data-name="Path 1090" d="M2369.928,6668.793a4.965,4.965,0,0,1-3.522-1.459c-.92-.919-1.829-1.873-2.7-2.833s-1.738-1.958-2.565-2.961-1.643-2.041-2.422-3.083-1.547-2.12-2.275-3.2-1.445-2.2-2.123-3.311-1.34-2.268-1.966-3.419-1.234-2.339-1.8-3.519-1.122-2.4-1.635-3.617-1.007-2.467-1.462-3.708-.889-2.524-1.284-3.794-.767-2.578-1.1-3.875-.642-2.633-.912-3.952-.513-2.679-.718-4.02-.381-2.722-.519-4.083-.245-2.767-.315-4.145-.106-2.8-.106-4.2.036-2.808.106-4.2.176-2.771.315-4.143.313-2.737.519-4.085.447-2.693.718-4.02.576-2.646.912-3.951.7-2.6,1.1-3.875.827-2.547,1.284-3.793.946-2.49,1.462-3.708,1.064-2.431,1.635-3.617,1.176-2.364,1.8-3.52,1.286-2.3,1.966-3.418,1.391-2.23,2.123-3.312,1.494-2.155,2.275-3.2,1.594-2.08,2.422-3.083,1.69-2,2.565-2.96,1.781-1.914,2.7-2.833,1.874-1.83,2.834-2.7,1.958-1.738,2.961-2.564,2.041-1.643,3.082-2.422,2.121-1.546,3.2-2.275,2.2-1.445,3.311-2.122,2.268-1.341,3.418-1.966,2.339-1.233,3.52-1.8,2.4-1.122,3.616-1.635,2.467-1.007,3.708-1.462,2.524-.889,3.794-1.284,2.579-.767,3.875-1.1,2.633-.642,3.95-.913,2.679-.512,4.02-.717,2.722-.381,4.084-.519,2.767-.245,4.143-.316,2.8-.105,4.2-.105,2.807.036,4.2.105,2.771.176,4.143.316,2.737.313,4.085.519,2.694.446,4.02.717,2.647.577,3.95.913,2.6.7,3.875,1.1,2.547.827,3.794,1.284,2.489.946,3.708,1.462,2.43,1.063,3.616,1.635a4.98,4.98,0,0,1-4.323,8.974c-1.041-.5-2.109-.985-3.173-1.435s-2.163-.883-3.252-1.283-2.214-.779-3.328-1.125-2.262-.673-3.4-.966-2.309-.563-3.465-.8-2.351-.45-3.528-.63-2.39-.334-3.587-.456-2.43-.216-3.641-.277-2.464-.093-3.692-.093-2.47.031-3.692.093-2.435.154-3.641.277-2.4.275-3.586.456-2.364.392-3.528.63-2.322.506-3.465.8-2.28.618-3.4.965-2.234.725-3.328,1.126-2.184.831-3.253,1.283-2.132.934-3.174,1.435-2.075,1.031-3.089,1.582-2.02,1.129-3,1.726-1.958,1.222-2.908,1.864-1.893,1.313-2.81,2-1.826,1.4-2.708,2.128-1.756,1.484-2.6,2.253-1.682,1.565-2.49,2.374-1.606,1.646-2.373,2.49-1.527,1.721-2.253,2.6-1.444,1.793-2.128,2.708-1.358,1.862-2,2.81-1.27,1.929-1.865,2.908-1.177,1.99-1.725,3-1.083,2.053-1.582,3.089-.984,2.108-1.435,3.173-.883,2.164-1.282,3.252-.779,2.215-1.126,3.328-.673,2.262-.965,3.4-.563,2.31-.8,3.465-.45,2.352-.63,3.528-.335,2.391-.456,3.587-.215,2.431-.277,3.641-.094,2.464-.094,3.692.032,2.471.094,3.692.155,2.435.277,3.641.275,2.4.456,3.586.392,2.364.63,3.528.506,2.322.8,3.466.618,2.28.965,3.4.725,2.234,1.126,3.328.83,2.184,1.283,3.253.933,2.133,1.435,3.173,1.031,2.076,1.582,3.089,1.129,2.021,1.725,3,1.222,1.958,1.864,2.908,1.312,1.893,2,2.81,1.4,1.827,2.128,2.708,1.484,1.756,2.253,2.6,1.566,1.682,2.374,2.491a4.98,4.98,0,0,1-3.521,8.5Z" transform="translate(-21380.691 7203.559)" fill="url(#linear-gradient)"/>
  </g>
</svg>
