<svg xmlns="http://www.w3.org/2000/svg" xmlns:xlink="http://www.w3.org/1999/xlink" width="163.24" height="140.794" viewBox="0 0 163.24 140.794">
  <defs>
    <linearGradient id="linear-gradient" y1="0.5" x2="1" y2="0.5" gradientUnits="objectBoundingBox">
      <stop offset="0" stop-color="#f88af7"/>
      <stop offset="1" stop-color="#ff96ff"/>
    </linearGradient>
  </defs>
  <g id="Group_3079" data-name="Group 3079" transform="translate(19511.977 -13741.188)">
    <path id="Path_1084" data-name="Path 1084" d="M-1802.687,6755.794a4.966,4.966,0,0,1-3.522-1.459,4.98,4.98,0,0,1,0-7.043,71.431,71.431,0,0,0,15.359-22.78,71.209,71.209,0,0,0,5.629-27.892,71.215,71.215,0,0,0-5.629-27.892,71.434,71.434,0,0,0-15.359-22.779,71.434,71.434,0,0,0-22.78-15.359,71.205,71.205,0,0,0-27.892-5.629,71.205,71.205,0,0,0-27.892,5.629,71.436,71.436,0,0,0-22.78,15.359,71.432,71.432,0,0,0-15.359,22.779,71.211,71.211,0,0,0-5.629,27.892,71.2,71.2,0,0,0,5.629,27.892,71.428,71.428,0,0,0,15.359,22.78,4.98,4.98,0,0,1,0,7.043,4.98,4.98,0,0,1-7.043,0,81.338,81.338,0,0,1-17.49-25.942,81.109,81.109,0,0,1-6.416-31.772,81.1,81.1,0,0,1,6.416-31.771,81.328,81.328,0,0,1,17.49-25.942,81.339,81.339,0,0,1,25.943-17.49A81.1,81.1,0,0,1-1856.88,6615a81.1,81.1,0,0,1,31.772,6.417,81.353,81.353,0,0,1,25.943,17.489,81.343,81.343,0,0,1,17.49,25.943,81.107,81.107,0,0,1,6.416,31.771,81.113,81.113,0,0,1-6.416,31.772,81.339,81.339,0,0,1-17.49,25.942A4.966,4.966,0,0,1-1802.687,6755.794Z" transform="translate(-17573.477 7126.188)" fill="#8453d2"/>
    <path id="Path_1085" data-name="Path 1085" d="M-1911.072,6755.794a4.964,4.964,0,0,1-3.522-1.459c-.919-.919-1.828-1.873-2.7-2.833s-1.737-1.958-2.564-2.961-1.644-2.041-2.422-3.082-1.546-2.12-2.275-3.2-1.445-2.2-2.123-3.312-1.341-2.269-1.965-3.418-1.234-2.339-1.8-3.52-1.122-2.4-1.635-3.617-1.007-2.465-1.462-3.708-.889-2.524-1.284-3.794-.767-2.58-1.1-3.875-.642-2.631-.912-3.951-.513-2.68-.718-4.02-.381-2.724-.519-4.084-.245-2.764-.315-4.143-.106-2.8-.106-4.2.036-2.807.106-4.2.176-2.773.315-4.144.313-2.735.519-4.084.447-2.692.718-4.02.577-2.648.912-3.951.7-2.6,1.1-3.875.827-2.546,1.284-3.794.947-2.49,1.462-3.708,1.063-2.431,1.635-3.617,1.176-2.366,1.8-3.52,1.286-2.3,1.965-3.418,1.392-2.229,2.123-3.312,1.5-2.156,2.275-3.2,1.594-2.079,2.422-3.083,1.69-2,2.564-2.961,1.782-1.913,2.7-2.833,1.872-1.828,2.834-2.7,1.958-1.737,2.961-2.564,2.041-1.644,3.082-2.422,2.121-1.546,3.2-2.275,2.2-1.445,3.311-2.123,2.269-1.341,3.418-1.965,2.339-1.233,3.52-1.8,2.4-1.122,3.616-1.635,2.466-1.008,3.708-1.462,2.524-.889,3.794-1.285,2.578-.767,3.875-1.1,2.632-.642,3.951-.912,2.679-.513,4.02-.718,2.722-.38,4.084-.519,2.767-.246,4.144-.315,2.8-.106,4.2-.106a4.98,4.98,0,0,1,4.98,4.98,4.98,4.98,0,0,1-4.98,4.98c-1.228,0-2.47.031-3.692.093s-2.436.154-3.641.276-2.4.275-3.586.456-2.364.393-3.528.63-2.323.506-3.466.8-2.281.617-3.4.965-2.234.726-3.328,1.125-2.184.832-3.253,1.283-2.132.933-3.173,1.435-2.076,1.032-3.089,1.582-2.019,1.128-3,1.726-1.957,1.222-2.908,1.864-1.893,1.312-2.81,2-1.826,1.4-2.708,2.129-1.756,1.484-2.6,2.252-1.683,1.567-2.49,2.374-1.607,1.646-2.374,2.49-1.526,1.72-2.253,2.6-1.444,1.793-2.128,2.708-1.358,1.862-2,2.81-1.269,1.929-1.864,2.908-1.177,1.991-1.725,3-1.083,2.053-1.582,3.089-.984,2.109-1.435,3.173-.883,2.163-1.283,3.253-.78,2.215-1.126,3.328-.673,2.263-.965,3.4-.563,2.309-.8,3.465-.45,2.353-.63,3.528-.334,2.392-.456,3.586-.215,2.429-.277,3.642-.093,2.464-.093,3.691.031,2.47.093,3.692.155,2.438.277,3.641.275,2.4.456,3.586.392,2.363.63,3.528.506,2.323.8,3.465.617,2.28.965,3.4.725,2.232,1.126,3.327.831,2.185,1.283,3.253.933,2.132,1.435,3.173,1.032,2.076,1.582,3.089,1.129,2.019,1.725,3,1.222,1.957,1.864,2.908,1.313,1.893,2,2.81,1.4,1.826,2.128,2.708,1.485,1.756,2.253,2.6,1.566,1.682,2.374,2.49a4.98,4.98,0,0,1,0,7.043A4.966,4.966,0,0,1-1911.072,6755.794Z" transform="translate(-17573.477 7126.188)" fill="url(#linear-gradient)"/>
  </g>
</svg>
