<svg xmlns="http://www.w3.org/2000/svg" xmlns:xlink="http://www.w3.org/1999/xlink" width="163.242" height="140.794" viewBox="0 0 163.242 140.794">
  <defs>
    <linearGradient id="linear-gradient" y1="0.5" x2="1" y2="0.5" gradientUnits="objectBoundingBox">
      <stop offset="0" stop-color="#f88af7"/>
      <stop offset="1" stop-color="#ff96ff"/>
    </linearGradient>
  </defs>
  <g id="Group_3087" data-name="Group 3087" transform="translate(18808.768 -13904.207)">
    <path id="Path_1101" data-name="Path 1101" d="M4551.313,8228.794a4.98,4.98,0,0,1-3.521-8.5,71.7,71.7,0,1,0-101.343,0,4.98,4.98,0,1,1-7.043,7.044,81.664,81.664,0,1,1,115.429,0A4.968,4.968,0,0,1,4551.313,8228.794Z" transform="translate(-23224.268 5816.207)" fill="#e0e0df"/>
    <path id="Path_1102" data-name="Path 1102" d="M4551.313,8228.794a4.98,4.98,0,0,1-3.521-8.5c.808-.808,1.606-1.646,2.374-2.489s1.526-1.721,2.253-2.6,1.444-1.794,2.128-2.708,1.358-1.862,2-2.811,1.27-1.929,1.864-2.907,1.178-1.991,1.726-3,1.083-2.053,1.583-3.088.984-2.109,1.435-3.175.883-2.163,1.282-3.253.78-2.212,1.126-3.327.673-2.261.965-3.4.563-2.309.8-3.466.451-2.351.63-3.528.334-2.39.456-3.586.215-2.431.277-3.641.093-2.464.093-3.691-.032-2.471-.093-3.692-.155-2.436-.277-3.641-.275-2.4-.456-3.586-.392-2.365-.63-3.528-.505-2.323-.8-3.466-.618-2.28-.965-3.4-.725-2.234-1.126-3.328-.83-2.183-1.282-3.252-.933-2.132-1.435-3.174-1.032-2.075-1.583-3.089-1.129-2.019-1.725-3-1.222-1.958-1.864-2.908-1.312-1.893-2-2.81-1.4-1.826-2.128-2.708-1.484-1.756-2.252-2.6-1.566-1.682-2.374-2.49-1.646-1.606-2.49-2.374-1.721-1.527-2.6-2.253-1.794-1.445-2.709-2.129-1.862-1.358-2.81-2-1.929-1.27-2.908-1.864-1.991-1.176-3-1.726-2.053-1.083-3.089-1.582-2.109-.985-3.174-1.436-2.163-.883-3.252-1.283-2.213-.778-3.327-1.125-2.262-.673-3.4-.965-2.309-.564-3.465-.8-2.351-.45-3.528-.63-2.391-.334-3.587-.456-2.431-.216-3.641-.277-2.464-.093-3.692-.093-2.47.031-3.691.093-2.436.154-3.642.277-2.4.275-3.586.456-2.364.392-3.527.63-2.323.506-3.466.8-2.28.617-3.4.964-2.234.726-3.328,1.126-2.184.831-3.253,1.284-2.132.933-3.173,1.435-2.076,1.03-3.089,1.582-2.019,1.129-3,1.726-1.958,1.222-2.908,1.864-1.893,1.312-2.81,2-1.825,1.4-2.708,2.128-1.755,1.485-2.6,2.254-1.682,1.565-2.49,2.375-1.606,1.645-2.373,2.488-1.527,1.721-2.253,2.6-1.444,1.793-2.128,2.708-1.358,1.863-2,2.81-1.27,1.929-1.864,2.908-1.177,1.991-1.726,3-1.083,2.053-1.582,3.088-.984,2.109-1.435,3.174-.883,2.163-1.282,3.252-.779,2.214-1.125,3.328-.673,2.262-.965,3.4-.563,2.31-.8,3.465-.45,2.352-.631,3.528-.333,2.391-.455,3.587-.216,2.431-.276,3.64-.093,2.465-.093,3.693.031,2.47.093,3.691.154,2.436.276,3.641.275,2.4.455,3.586.393,2.364.631,3.528.506,2.322.8,3.466.617,2.28.965,3.4.726,2.234,1.126,3.327.831,2.186,1.283,3.254.933,2.132,1.435,3.174,1.031,2.074,1.582,3.089,1.129,2.019,1.726,3,1.222,1.957,1.864,2.907,1.312,1.893,2,2.811,1.4,1.826,2.128,2.707,1.484,1.757,2.253,2.6,1.566,1.683,2.375,2.49a4.981,4.981,0,0,1-7.044,7.044c-.919-.921-1.829-1.874-2.7-2.835s-1.737-1.959-2.564-2.96-1.643-2.042-2.422-3.083-1.546-2.121-2.275-3.2-1.445-2.2-2.123-3.312-1.34-2.268-1.966-3.418-1.233-2.34-1.8-3.521-1.122-2.4-1.635-3.615-1.008-2.467-1.462-3.709-.889-2.524-1.284-3.795-.767-2.579-1.1-3.874-.643-2.634-.912-3.952-.513-2.679-.718-4.02-.38-2.722-.519-4.084-.246-2.767-.315-4.145-.107-2.8-.107-4.195.037-2.808.107-4.2.175-2.771.315-4.143.313-2.737.519-4.085.447-2.693.718-4.021.577-2.646.912-3.95.7-2.6,1.1-3.875.827-2.546,1.284-3.793.947-2.489,1.462-3.708,1.063-2.43,1.635-3.616,1.175-2.365,1.8-3.521,1.287-2.3,1.966-3.418,1.392-2.229,2.123-3.312,1.495-2.154,2.275-3.2,1.594-2.08,2.422-3.083,1.69-2,2.564-2.96,1.782-1.914,2.7-2.833,1.874-1.83,2.834-2.7,1.958-1.738,2.96-2.565,2.041-1.643,3.083-2.423,2.121-1.545,3.2-2.274,2.2-1.445,3.312-2.123,2.268-1.341,3.418-1.966,2.34-1.233,3.521-1.8,2.4-1.122,3.616-1.635,2.467-1.007,3.708-1.462,2.524-.889,3.794-1.284,2.579-.767,3.875-1.1,2.632-.643,3.95-.913,2.679-.513,4.021-.718,2.722-.38,4.084-.519,2.767-.246,4.143-.316,2.8-.106,4.2-.106,2.807.037,4.2.106,2.771.176,4.143.316,2.737.313,4.085.519,2.694.446,4.021.718,2.646.577,3.95.913,2.6.7,3.875,1.1,2.546.827,3.794,1.284,2.489.946,3.708,1.462,2.43,1.063,3.617,1.635,2.365,1.175,3.521,1.8,2.3,1.287,3.418,1.966,2.229,1.392,3.311,2.123,2.156,1.494,3.2,2.274,2.079,1.6,3.083,2.423,2,1.689,2.96,2.565,1.914,1.782,2.833,2.7,1.829,1.874,2.7,2.834,1.738,1.958,2.564,2.96,1.644,2.041,2.422,3.083,1.547,2.12,2.276,3.2,1.444,2.2,2.123,3.312,1.34,2.268,1.965,3.417,1.234,2.34,1.8,3.521,1.122,2.4,1.634,3.616,1.008,2.467,1.462,3.708.889,2.524,1.284,3.793.767,2.579,1.1,3.875.642,2.633.912,3.95.513,2.679.717,4.021.381,2.722.52,4.084.245,2.768.315,4.144.106,2.8.106,4.2-.036,2.807-.106,4.2-.176,2.771-.315,4.144-.313,2.736-.52,4.084-.446,2.694-.717,4.021-.577,2.646-.912,3.951-.7,2.6-1.1,3.874-.827,2.547-1.284,3.795-.946,2.489-1.461,3.709-1.063,2.43-1.635,3.615-1.176,2.366-1.8,3.52-1.287,2.3-1.966,3.42-1.391,2.229-2.122,3.311-1.494,2.155-2.276,3.2-1.593,2.079-2.422,3.084-1.689,2-2.565,2.959-1.781,1.914-2.7,2.835A4.968,4.968,0,0,1,4551.313,8228.794Z" transform="translate(-23224.268 5816.207)" fill="url(#linear-gradient)"/>
  </g>
</svg>
