<svg xmlns="http://www.w3.org/2000/svg" xmlns:xlink="http://www.w3.org/1999/xlink" width="161.072" height="138.923" viewBox="0 0 161.072 138.923">
  <defs>
    <linearGradient id="linear-gradient" x1="1.133" y1="0.883" x2="0.362" gradientUnits="objectBoundingBox">
      <stop offset="0" stop-color="#00defb"/>
      <stop offset="1" stop-color="#00e1fd"/>
    </linearGradient>
  </defs>
  <g id="Group_3062" data-name="Group 3062" transform="translate(-438.457 -2304.504)">
    <g id="Group_3047" data-name="Group 3047" transform="translate(438.457 2304.504)">
      <path id="Path_1046" data-name="Path 1046" d="M-161.992-5989.077a4.9,4.9,0,0,1-3.475-1.439,4.914,4.914,0,0,1,0-6.949,70.489,70.489,0,0,0,15.155-22.477,70.266,70.266,0,0,0,5.555-27.521,70.258,70.258,0,0,0-5.555-27.521,70.472,70.472,0,0,0-15.155-22.478,70.472,70.472,0,0,0-22.477-15.155,70.263,70.263,0,0,0-27.521-5.555,70.263,70.263,0,0,0-27.521,5.555,70.472,70.472,0,0,0-22.477,15.155,70.472,70.472,0,0,0-15.155,22.478,70.258,70.258,0,0,0-5.554,27.521,70.266,70.266,0,0,0,5.554,27.521,70.49,70.49,0,0,0,15.155,22.477,4.914,4.914,0,0,1,0,6.949,4.914,4.914,0,0,1-6.949,0,80.256,80.256,0,0,1-17.257-25.6,80.034,80.034,0,0,1-6.331-31.35,80.037,80.037,0,0,1,6.331-31.35,80.256,80.256,0,0,1,17.257-25.6,80.251,80.251,0,0,1,25.6-17.258,80.049,80.049,0,0,1,31.35-6.331,80.049,80.049,0,0,1,31.35,6.331,80.251,80.251,0,0,1,25.6,17.258,80.256,80.256,0,0,1,17.257,25.6,80.036,80.036,0,0,1,6.331,31.35,80.033,80.033,0,0,1-6.331,31.35,80.256,80.256,0,0,1-17.257,25.6A4.9,4.9,0,0,1-161.992-5989.077Z" transform="translate(296 6128)" fill="#e0e0df"/>
    </g>
    <g id="Group_3048" data-name="Group 3048" transform="translate(438.848 2387.857)">
      <path id="Path_1047" data-name="Path 1047" d="M-265.755-5309.13a4.9,4.9,0,0,1-3.475-1.439c-1.815-1.815-3.563-3.738-5.2-5.717s-3.2-4.069-4.635-6.2-2.8-4.374-4.034-6.641c-1.24-2.283-2.381-4.652-3.392-7.042-1.02-2.412-1.932-4.9-2.709-7.4-.786-2.528-1.454-5.126-1.985-7.721a80.76,80.76,0,0,1-1.221-8,4.913,4.913,0,0,1,4.392-5.385,4.913,4.913,0,0,1,5.385,4.392,70.8,70.8,0,0,0,1.071,7.02c.466,2.277,1.052,4.556,1.741,6.773.682,2.192,1.481,4.376,2.376,6.493.887,2.1,1.888,4.176,2.977,6.179s2.272,3.951,3.542,5.83,2.633,3.7,4.071,5.444,2.971,3.429,4.566,5.023a4.914,4.914,0,0,1,0,6.95A4.9,4.9,0,0,1-265.755-5309.13Z" transform="translate(292.428 5364.699)" fill="url(#linear-gradient)"/>
    </g>
  </g>
</svg>
